<svg xmlns="http://www.w3.org/2000/svg" viewBox="0 0 89.7 75.7">
    <defs>
        <style>.cls-1{fill:#878787;}</style>
    </defs>
    <g id="Layer_2" data-name="Layer 2">
        <g id="Calque_1" data-name="Calque 1">
            <path class="cls-1" d="M13.3,59.2H0v2.5H76.1V59.2h-4l2.2-9-5.2.6V34.4H66.6V59.2H39.5V56.3L11.7,58.1V59Zm49.5-4.3V50.6a67.81,67.81,0,0,0-8.9-.4,67.5,67.5,0,0,0-8.7.4v4.3a.37.37,0,0,0,.3-.1h.8c1.4-.1,4.3-.2,7.8-.2,3.3,0,6,.1,7.5.2a3.75,3.75,0,0,1,1,.1h.2m0-18.8c-1-.4-3.9-.9-8.9-.9a36.52,36.52,0,0,0-8.8.8v3.5a44.12,44.12,0,0,1,8.8-.7,44.53,44.53,0,0,1,8.9.7V36.1Zm-8.9-2.2c1.8,0,6.5.1,8.9.8V31.3c-1-.4-3.9-1-8.8-1s-7.8.6-8.8,1v3.5c2.3-.8,7-.9,8.7-.9m8.9,7a38.69,38.69,0,0,0-8.9-.7,39.73,39.73,0,0,0-8.8.7v3.5a48.55,48.55,0,0,1,8.8-.5,49.18,49.18,0,0,1,8.9.6V40.9Zm0,4.8a45.49,45.49,0,0,0-8.9-.6,63,63,0,0,0-8.8.5v3.6a78.29,78.29,0,0,1,8.7-.4,79.7,79.7,0,0,1,8.9.4V45.7ZM45.1,26.8v3.1c2.5-.9,7.6-.9,8.8-.9s6.3.1,8.8.9V26.8h0c0-1-4-1.9-8.8-1.9s-8.8.8-8.8,1.9M39.5,44.4l-27.8,11V56l27.8-7.2ZM11.6,54.8,39.4,43V37.8l-27.8,16Zm27.9-4.5L11.7,56.7v.6l27.8-2.6ZM32.3,34.4,7.3,52.7h4.3l28-18.3H32.3ZM30.5,16.3A33.05,33.05,0,0,1,51,6.7V4.3A35.66,35.66,0,0,0,18.5,38.9h2.3a32.67,32.67,0,0,1,9.7-22.6m26.9,2.5A4.07,4.07,0,0,0,55,18V0H52.8V18c-1.5.2-2.9.7-2.9,1.9v.5h.8a8.8,8.8,0,0,0-4.1,1c-3.2.5-6.1,1.5-6.1,3.5v.5h2.1V25h0c.8-.8,4.9-2,11.3-2s10.5,1.2,11.3,2h0v.4h2.1v-.5a1.75,1.75,0,0,0-.7-1.4c-.9-.9-2.8-1.6-5.4-2a8.77,8.77,0,0,0-4.2-1h.7V20a1.05,1.05,0,0,0-.3-1.2M79.3,65.1a35.73,35.73,0,0,0,0-50.4A35.14,35.14,0,0,0,56.8,4.4V6.7a32.91,32.91,0,0,1,20.9,9.7,33.38,33.38,0,0,1-23.6,57,32.89,32.89,0,0,1-23.5-9.7H27.5c.5.5,1,1.1,1.5,1.6a35.37,35.37,0,0,0,50.3-.2"/>
        </g>
    </g>
</svg>
