<?xml version="1.0" encoding="utf-8"?>
<!-- Generator: Adobe Illustrator 24.1.2, SVG Export Plug-In . SVG Version: 6.00 Build 0)  -->
<svg version="1.1" id="Calque_1" xmlns="http://www.w3.org/2000/svg" xmlns:xlink="http://www.w3.org/1999/xlink" x="0px" y="0px"
	 viewBox="0 0 595.3 308.4" style="enable-background:new 0 0 595.3 308.4;" xml:space="preserve">
<style type="text/css">
	.st0{fill:#878787;}
</style>
<g>
	<path class="st0" d="M133,191.6c-2.2,0-2.4,0-4.8,0.1l-0.2-0.3c0.1-4.4,0.2-9.2,0.2-13.3c-1,0-2-0.1-3.9-0.1
		c-3.3,0-6.9,0.1-9.8,0.1c0,7.5,0.1,10.1,0.3,13.1l-0.2,0.3c-2.3,0-2.4,0-4.7,0.1l-0.3-0.3c0.1-3.9,0.2-5.9,0.2-17.9
		c0-5.3-0.1-7.2-0.2-9.6l0.2-0.3c2.1-0.1,2.6-0.1,4.7-0.1l0.2,0.3c-0.1,2.3-0.1,5.6-0.1,11c2.2,0,3.3,0.1,6.1,0.1
		c3.8,0,5.6,0,7.6-0.1c-0.1-7.5-0.1-8.4-0.3-10.8l0.2-0.3c2.2-0.1,2.6-0.1,4.6-0.1l0.2,0.3c-0.1,3.8-0.2,6.3-0.2,13.2
		c0,7.7,0.2,10.6,0.4,14.2L133,191.6z"/>
	<path class="st0" d="M157,179.5c0-1.7,0-3.8-0.3-4.9c-0.9-3.1-3.9-4-7-4c-2.5,0-4.9,0.5-7.3,1.3l-0.2,0.2c-0.1,0.8-0.1,1.1-0.1,2.9
		l0.3,0.2c1.8-0.7,3.7-1.5,6.4-1.5c2.1,0,3.1,0.7,3.5,1.4c0.4,0.6,0.4,1.4,0.4,2.5l-0.7,0.1c-7.5,0.8-12.2,2.5-12.2,7.8
		c0,3.9,3,6.6,7.1,6.6c3.2,0,5.1-1.4,5.9-2l-0.1,1.4l0.2,0.2c1.9-0.1,2.2-0.1,4.2-0.2l0.2-0.2c-0.2-2.6-0.2-3-0.2-7.9V179.5z
		 M152.7,180.5v6.6c-0.4,0.4-2,1.7-4.6,1.7c-4,0-4-3.4-4-3.6c0-3.5,3.9-4.1,8.2-4.6L152.7,180.5z"/>
	<path class="st0" d="M183.3,171.1c-0.1,3-0.1,5.8-0.1,9c0,4.9,0.1,7.8,0.2,9.5c0,0.6,0,1.1,0.1,1.6l-0.2,0.3c-2,0-2.3,0.1-4.3,0.2
		l-0.2-0.2l0-1.7c-0.9,0.6-3.1,2.3-6.6,2.3c-1.6,0-3.4-0.4-4.8-1.4c-2.7-2.1-2.7-5.4-2.7-8.5v-2.5c-0.1-5.7-0.1-6.3-0.2-8.4l0.2-0.2
		c2,0,2.3,0,4.3-0.2l0.3,0.3l-0.2,8.7c0,1.1,0,1.8,0,3.7c0,1.6,0.1,5.2,4.4,5.2c2.5,0,4.2-1.3,5.2-2.1c0.1-2.1,0.1-3.9,0.1-6.2
		c0-5.5-0.1-6.6-0.3-9.2l0.2-0.3c1.9,0,2.4,0,4.3-0.2L183.3,171.1z"/>
	<path class="st0" d="M200.7,188.4c-0.1,1.3-0.1,1.6-0.2,2.7l-0.2,0.2c-0.9,0.2-1.6,0.4-3.1,0.4c-1,0-3.7,0-5-2.1
		c-0.8-1.1-0.8-2.1-0.8-6.8l0.1-8.7c-1.5,0-1.5,0-3.1,0.1l-0.2-0.3c0.1-1.2,0.1-1.6,0.1-2.8l0.3-0.2c0.9,0,1.4,0,2.8,0
		c-0.1-0.8-0.1-1.7-0.1-2.5c0-0.7-0.1-1.5-0.1-2.2l0.2-0.3c1.9-0.4,2.4-0.5,4.3-1.1l0.3,0.2c-0.1,2.6-0.2,3.1-0.2,6
		c1.8,0,2.3,0,4.7-0.1l0.2,0.2c-0.1,1-0.1,1.5-0.1,2.8l-0.2,0.2c-2.1,0-2.3-0.1-4.6-0.1l-0.1,7.4c0,0.5,0,2.7,0,3.3
		c0,2.9,0.4,3.8,2.5,3.8c0.9,0,1.6-0.2,2-0.4L200.7,188.4z"/>
	<path class="st0" d="M223.2,186.6c-0.6,0.4-1.5,1.1-3,1.7c-1.2,0.4-2.5,0.6-3.7,0.6c-1.3,0-3.7-0.2-5.4-2.1
		c-1.4-1.6-1.6-3.6-1.6-4.9c6.9,0,8,0,14.6,0l0.3-0.2c0-1.7,0.1-5.7-2.3-8.4c-1.3-1.4-3.6-2.7-6.9-2.7c-5.5,0-10.2,3.6-10.2,11
		c0,6.8,4.3,10.6,11.2,10.6c3.7,0,6-1.2,6.7-1.5l0.3-0.3c0.1-1.5,0.1-2,0.3-3.5L223.2,186.6z M220,178.8c-3.9,0.1-5.4,0.1-10.5,0.1
		c0.4-4,3.2-5.5,5.6-5.5c1.9,0,3.7,0.9,4.6,3.1C219.9,177.4,220,178.2,220,178.8"/>
	<path class="st0" d="M263.2,188.3c-0.1,1.4-0.1,1.6-0.2,3l-0.3,0.3c-8.2,0-9.4,0-17.4,0.1l-0.2-0.3c0.1-3.1,0.2-5.2,0.2-12.5
		c0-6.6,0-10.4-0.3-15l0.2-0.3c8.3-0.1,9.9-0.1,17.6-0.1l0.2,0.3c-0.1,1.2-0.2,1.7-0.3,3.1l-0.2,0.3c-5.4-0.2-7.2-0.2-12.5-0.2
		c-0.1,3.6-0.1,4.8-0.1,8.4c5.2,0,6.7,0,11.8-0.1l0.2,0.2c-0.2,1.4-0.2,1.8-0.2,3.1l-0.2,0.3c-4.9-0.1-5.9-0.1-11.6-0.1
		c-0.1,4.6-0.1,5.7,0,9.4c6.3,0,7.6,0,13-0.2L263.2,188.3z"/>
	<path class="st0" d="M285.3,186.9c-0.2,1.7-0.2,1.9-0.4,3.5l-0.3,0.3c-1.2,0.5-2.9,1.4-5.8,1.4c-6.3,0-10.5-4.3-10.5-10.5
		c0-6.3,4-11,10.5-11c2.7,0,4.7,0.8,5.7,1.2l0.2,0.3c-0.2,1.4-0.2,1.9-0.3,3.1l-0.3,0.2c-1.4-1-3-1.6-4.7-1.6
		c-3.5,0-6.5,2.6-6.5,7.6c0,5.4,3.2,7.3,6.5,7.3c2.8,0,4.6-1.4,5.4-2L285.3,186.9z"/>
	<path class="st0" d="M310.3,181c-0.1-2.8-0.6-5.5-2.5-7.7c-1.9-2-4.7-2.8-7.5-2.8c-4.2,0-6.6,1.6-7.8,2.8c-2.8,2.6-2.9,6.5-2.9,8
		c0,1.3,0.1,5.3,2.9,8.1c1.3,1.3,3.7,2.7,7.5,2.7c2.9,0,5.4-0.7,7.2-2.4c1.4-1.3,2.3-2.8,2.8-4.8C310.2,183.7,310.3,182.3,310.3,181
		 M305.7,181.2c0.1,0.8,0,3.5-1,5.3c-1.2,2.2-3.2,2.6-4.8,2.6c-0.8,0-1.7-0.2-2.5-0.5c-3.3-1.6-3.3-5.6-3.3-7.1c0-1.7,0.1-4,1.3-5.6
		c1.5-2.2,3.8-2.3,4.6-2.3c2.4,0,3.7,1,4.5,2.3C305.5,177.5,305.7,180.2,305.7,181.2"/>
	<path class="st0" d="M321.4,191.6c-2,0-2.4,0.1-4.4,0.2l-0.2-0.3c0.1-2.8,0.2-6.4,0.2-14c0-5.5,0-11.3-0.4-16.3l0.2-0.3
		c2.1-0.3,2.5-0.4,4.6-0.8l0.3,0.3c-0.3,5.2-0.3,10.4-0.3,15.6c0,8.6,0.1,11.6,0.3,15.4L321.4,191.6z"/>
	<path class="st0" d="M346.4,186.6c-0.5,0.4-1.4,1.1-3,1.7c-1.2,0.4-2.4,0.6-3.7,0.6c-1.3,0-3.7-0.2-5.4-2.1
		c-1.4-1.6-1.5-3.6-1.6-4.9c6.8,0,8,0,14.5,0l0.3-0.2c0-1.7,0.1-5.7-2.3-8.4c-1.2-1.4-3.6-2.7-6.9-2.7c-5.5,0-10.2,3.6-10.2,11
		c0,6.8,4.3,10.6,11.2,10.6c3.8,0,6-1.2,6.7-1.5l0.2-0.3c0.1-1.5,0.1-2,0.3-3.5L346.4,186.6z M343.2,178.8
		c-3.8,0.1-5.4,0.1-10.5,0.1c0.4-4,3.2-5.5,5.5-5.5c1.9,0,3.8,0.9,4.6,3.1C343.2,177.4,343.2,178.2,343.2,178.8"/>
	<path class="st0" d="M379.1,175.8c3.1,1.3,7.1,2.9,7.1,8c0,4.4-3.5,8.4-10.7,8.4c-4.5,0-7.3-1.3-8.3-1.7l-0.2-0.3
		c0.2-1.4,0.2-2.1,0.3-3.6l0.4-0.2c1.1,0.7,3.5,2.3,7.4,2.3c4.3,0,6.1-2.1,6.1-4.5c0-2.7-2.4-3.8-5.2-4.8l-2.1-0.9c-3-1.3-7-3-7-7.8
		c0-1.4,0.4-3,1.3-4.2c1.9-2.6,5.4-3.5,8.8-3.5c3.3,0,5.3,0.6,7.5,1.3l0.2,0.3c-0.2,1.5-0.2,2-0.4,3.5l-0.3,0.1
		c-1.8-0.8-3.8-1.8-6.9-1.8c-3.5,0-5.7,1.5-5.7,3.9c0,1.8,1.3,2.6,2.1,3.1c0.5,0.3,0.7,0.4,3.3,1.4L379.1,175.8z"/>
	<path class="st0" d="M397.3,171l-0.3-0.2c-1.9,0.4-2.3,0.5-4.4,0.8l-0.2,0.2c0.5,4.5,0.5,7.3,0.5,13.4c0,2.3,0,4.7,0,7
		c0,4-0.1,6.5-0.2,8.9l0.2,0.2c1.5,0,3-0.1,4.4-0.1l0.2-0.2c-0.2-3.7-0.3-4.7-0.3-9.5c0.6,0,1.1,0.1,1.9,0.1
		c8.9,0,13.2-5.3,13.2-11.4c0-5.5-3.7-9.7-9.1-9.7c-3.3,0-5.3,1.5-6.1,2.1L397.3,171z M397.3,188.5c0-2.3-0.1-4.6-0.1-6.9
		c0-2,0-4,0.1-6.1c1-0.6,2.6-1.7,4.8-1.7c3.3,0,5.7,2.5,5.7,6.6c0,4.9-3.2,8.2-8.8,8.2C398.3,188.7,397.8,188.6,397.3,188.5"/>
	<path class="st0" d="M436.2,186.6c-0.6,0.4-1.5,1.1-3.1,1.7c-1.1,0.4-2.4,0.6-3.6,0.6c-1.3,0-3.7-0.2-5.4-2.1
		c-1.4-1.6-1.5-3.6-1.6-4.9c6.9,0,8,0,14.6,0l0.3-0.2c0-1.7,0.1-5.7-2.3-8.4c-1.2-1.4-3.6-2.7-6.9-2.7c-5.5,0-10.2,3.6-10.2,11
		c0,6.8,4.3,10.6,11.2,10.6c3.7,0,6-1.2,6.7-1.5l0.3-0.3c0.1-1.5,0.1-2,0.3-3.5L436.2,186.6z M432.7,162.3c-0.8,0-1.6,0-2.4,0
		c-0.8,0-1.5,0-2.5,0l-0.2,0.2c-0.9,2.6-2.1,5.1-2.6,6l0.2,0.3c1.5,0,1.9,0,3.1,0l0.3-0.1c1.9-2.9,2.3-3.4,4.3-6.1L432.7,162.3z
		 M433,178.8c-3.9,0.1-5.4,0.1-10.5,0.1c0.4-4,3.2-5.5,5.5-5.5c1.9,0,3.7,0.9,4.6,3.1C432.9,177.4,432.9,178.2,433,178.8"/>
	<path class="st0" d="M459.4,186.9c-0.2,1.7-0.2,1.9-0.4,3.5l-0.3,0.3c-1.2,0.5-2.9,1.4-5.8,1.4c-6.3,0-10.4-4.3-10.4-10.5
		c0-6.3,4-11,10.5-11c2.7,0,4.7,0.8,5.7,1.2l0.2,0.3c-0.2,1.4-0.2,1.9-0.3,3.1l-0.3,0.2c-1.4-1-3-1.6-4.6-1.6
		c-3.5,0-6.5,2.6-6.5,7.6c0,5.4,3.2,7.3,6.5,7.3c2.9,0,4.6-1.4,5.4-2L459.4,186.9z"/>
	<path class="st0" d="M469.4,165.3c-2.2,0.1-2.6,0.1-4.6,0.3l-0.2-0.2c0-0.5,0-1.1,0-1.6c0-0.7,0-1.4-0.1-2.2l0.3-0.2
		c2.2-0.2,2.6-0.2,4.6-0.4l0.2,0.2v3.8L469.4,165.3z M469.4,191.6c-2.2,0-2.5,0-4.5,0.2l-0.2-0.3c0.1-2.1,0.2-3.9,0.2-8.3
		c0-7.5-0.1-9-0.4-11.3l0.2-0.3c1.8-0.3,2.5-0.4,4.5-0.8l0.4,0.2c-0.1,2-0.2,4.2-0.2,9.3c0,7.4,0.1,8.3,0.2,11L469.4,191.6z"/>
	<path class="st0" d="M493.2,179.5c0-1.7,0-3.8-0.3-4.9c-0.9-3.1-3.9-4-7-4c-2.5,0-4.9,0.5-7.2,1.3l-0.2,0.2c0,0.8,0,1.1-0.1,2.9
		l0.3,0.2c1.8-0.7,3.7-1.5,6.4-1.5c2.1,0,3.1,0.7,3.5,1.4c0.4,0.6,0.4,1.4,0.4,2.5l-0.7,0.1c-7.5,0.8-12.2,2.5-12.2,7.8
		c0,3.9,2.9,6.6,7.1,6.6c3.2,0,5.1-1.4,5.9-2l0,1.4l0.2,0.2c1.9-0.1,2.3-0.1,4.2-0.2l0.2-0.2c-0.2-2.6-0.2-3-0.2-7.9V179.5z
		 M488.8,180.5v6.6c-0.4,0.4-2,1.7-4.6,1.7c-4,0-4-3.4-4-3.6c0-3.5,3.9-4.1,8.2-4.6L488.8,180.5z"/>
	<path class="st0" d="M505.4,191.6c-2,0-2.5,0.1-4.4,0.2l-0.2-0.3c0.1-2.8,0.2-6.4,0.2-14c0-5.5,0-11.3-0.4-16.3l0.2-0.3
		c2-0.3,2.5-0.4,4.5-0.8l0.3,0.3c-0.3,5.2-0.3,10.4-0.3,15.6c0,8.6,0.1,11.6,0.3,15.4L505.4,191.6z"/>
	<path class="st0" d="M517.9,165.3c-2.1,0.1-2.6,0.1-4.6,0.3l-0.3-0.2c0.1-0.5,0.1-1.1,0.1-1.6c0-0.7-0.1-1.4-0.1-2.2l0.3-0.2
		c2.2-0.2,2.5-0.2,4.6-0.4l0.3,0.2c-0.1,1.6-0.1,2,0,3.8L517.9,165.3z M517.8,191.6c-2.2,0-2.5,0-4.5,0.2l-0.2-0.3
		c0.1-2.1,0.2-3.9,0.2-8.3c0-7.5-0.1-9-0.4-11.3l0.2-0.3c1.8-0.3,2.4-0.4,4.5-0.8l0.4,0.2c-0.1,2-0.3,4.2-0.3,9.3
		c0,7.4,0.1,8.3,0.3,11L517.8,191.6z"/>
	<path class="st0" d="M534.5,179.6c1.7,0.5,5.5,1.7,5.5,5.9c0,1.6-0.6,3.4-2.4,4.7c-2.2,1.8-5.2,1.9-6.7,1.9c-2.2,0-4.1-0.4-5.7-1
		c-0.2-0.1-0.4-0.1-0.7-0.2l-0.2-0.4c0.2-1.5,0.2-1.7,0.2-3.3l0.4-0.1c0.7,0.6,2.6,1.9,5.8,1.9c3.3,0,4.5-1.7,4.5-3
		c0-1.8-1.8-2.4-4.4-3.2l-1.3-0.4c-1.7-0.5-5.5-1.6-5.5-5.7c0-4.1,3.8-6.1,8.5-6.1c3.1,0,5.3,0.8,6,1.1l0.2,0.2
		c-0.2,1.5-0.2,1.6-0.4,3.1l-0.4,0.2c-1.1-0.6-2.7-1.6-5.4-1.6c-0.6,0-1.2,0-1.8,0.2c-1.3,0.3-2.3,1.1-2.3,2.4c0,1.7,1.7,2.2,4.3,3
		L534.5,179.6z"/>
	<path class="st0" d="M562.9,186.6c-0.5,0.4-1.5,1.1-3,1.7c-1.2,0.4-2.5,0.6-3.7,0.6c-1.3,0-3.7-0.2-5.4-2.1
		c-1.4-1.6-1.5-3.6-1.6-4.9c6.9,0,8,0,14.6,0l0.3-0.2c0-1.7,0.1-5.7-2.3-8.4c-1.3-1.4-3.6-2.7-6.9-2.7c-5.5,0-10.2,3.6-10.2,11
		c0,6.8,4.3,10.6,11.2,10.6c3.7,0,6-1.2,6.7-1.5l0.2-0.3c0.1-1.5,0.1-2,0.4-3.5L562.9,186.6z M559.6,162.3c-0.8,0-1.6,0-2.4,0
		c-0.8,0-1.5,0-2.5,0l-0.2,0.2c-0.9,2.6-2.2,5.1-2.6,6l0.2,0.3c1.5,0,1.9,0,3.1,0l0.3-0.1c1.9-2.9,2.3-3.4,4.3-6.1L559.6,162.3z
		 M559.8,178.8c-3.8,0.1-5.4,0.1-10.5,0.1c0.4-4,3.2-5.5,5.5-5.5c1.9,0,3.7,0.9,4.6,3.1C559.7,177.4,559.7,178.2,559.8,178.8"/>
	<path class="st0" d="M587.5,186.6c-0.5,0.4-1.4,1.1-3,1.7c-1.1,0.4-2.4,0.6-3.6,0.6c-1.3,0-3.7-0.2-5.4-2.1
		c-1.4-1.6-1.5-3.6-1.6-4.9c6.9,0,8,0,14.6,0l0.3-0.2c0-1.7,0.2-5.7-2.2-8.4c-1.3-1.4-3.6-2.7-6.9-2.7c-5.5,0-10.2,3.6-10.2,11
		c0,6.8,4.3,10.6,11.2,10.6c3.8,0,6-1.2,6.7-1.5l0.2-0.3c0.1-1.5,0.1-2,0.4-3.5L587.5,186.6z M584.4,178.8
		c-3.9,0.1-5.4,0.1-10.5,0.1c0.4-4,3.2-5.5,5.5-5.5c1.9,0,3.7,0.9,4.6,3.1C584.3,177.4,584.4,178.2,584.4,178.8"/>
	<path class="st0" d="M167.3,208.3c0.2,2.3,0.4,4.7,0.4,9.5c-1.1-0.1-1.6-0.1-2.4-0.1c-2.2,0-6.1,0.1-9.2,2.7
		c-1.7,1.5-3.7,4.2-3.7,8.5c0,6,3.9,10.2,9.4,10.2c3.1,0,4.8-1.3,5.8-2l-0.1,1.5l0.3,0.2c1.9-0.1,2.4-0.1,4.3-0.1l0.2-0.3
		c-0.2-2.7-0.3-5.6-0.3-11.8c0-3.9,0-13.7,0.3-19.2l-0.3-0.2c-1.8,0.4-2.3,0.5-4.4,0.8L167.3,208.3z M167.5,233.9
		c-0.6,0.5-2.2,1.7-4.7,1.7c-2.2,0-3.6-0.9-4.3-1.8c-0.9-1-1.5-2.6-1.5-4.9c0-3.5,1.5-5.4,2.4-6.2c2-1.8,4.8-1.9,6.1-1.9
		c0.9,0,1.4,0.1,2.1,0.1C167.6,227.5,167.6,228.7,167.5,233.9"/>
	<path class="st0" d="M196.9,233.8c-0.5,0.4-1.5,1.1-3,1.7c-1.2,0.4-2.4,0.6-3.6,0.6c-1.3,0-3.7-0.2-5.4-2.1
		c-1.4-1.6-1.6-3.6-1.6-4.9c6.9,0,8,0,14.6,0l0.3-0.2c0.1-1.7,0.1-5.6-2.2-8.3c-1.3-1.4-3.6-2.7-6.9-2.7c-5.5,0-10.2,3.6-10.2,10.9
		c0,6.9,4.3,10.6,11.2,10.6c3.7,0,6-1.2,6.7-1.5l0.2-0.3c0.1-1.5,0.1-1.9,0.3-3.5L196.9,233.8z M193.7,226c-3.9,0-5.5,0.1-10.5,0
		c0.4-4,3.2-5.5,5.5-5.5c1.9,0,3.7,0.9,4.6,3.1C193.6,224.6,193.7,225.4,193.7,226"/>
	<path class="st0" d="M229.6,223c3.1,1.3,7.1,2.9,7.1,8c0,4.4-3.5,8.4-10.8,8.4c-4.5,0-7.3-1.2-8.3-1.7l-0.2-0.2
		c0.2-1.4,0.2-2.1,0.3-3.6l0.5-0.2c1,0.7,3.5,2.3,7.4,2.3c4.3,0,6.1-2.1,6.1-4.4c0-2.8-2.4-3.8-5.2-4.8l-2.1-0.9c-3-1.3-7-3-7-7.8
		c0-1.5,0.4-2.9,1.3-4.2c1.9-2.6,5.4-3.4,8.8-3.4c3.3,0,5.3,0.6,7.5,1.2l0.2,0.3c-0.2,1.5-0.2,2.1-0.3,3.5l-0.4,0.1
		c-1.7-0.9-3.7-1.8-6.9-1.8c-3.5,0-5.7,1.5-5.7,3.9c0,1.8,1.3,2.6,2.2,3.1c0.6,0.3,0.7,0.4,3.2,1.4L229.6,223z"/>
	<path class="st0" d="M261.7,218.4c-0.1,3-0.1,5.8-0.1,9c0,4.9,0.1,7.8,0.2,9.5c0,0.6,0,1.1,0.1,1.7l-0.2,0.3c-2,0-2.3,0-4.3,0.1
		l-0.2-0.2l0-1.7c-0.9,0.6-3.1,2.2-6.6,2.2c-1.7,0-3.5-0.4-4.8-1.4c-2.7-2.1-2.7-5.4-2.7-8.5V227c-0.1-5.7-0.1-6.3-0.2-8.4l0.2-0.3
		c2,0,2.3,0,4.3-0.2l0.2,0.3l-0.2,8.6c0,1.1-0.1,1.9,0,3.8c0,1.7,0.1,5.2,4.3,5.2c2.5,0,4.2-1.3,5.2-2c0-2.1,0-4,0-6.2
		c0-5.5,0-6.6-0.3-9.2l0.2-0.2c1.9,0,2.4,0,4.3-0.2L261.7,218.4z"/>
	<path class="st0" d="M274.2,212.5c-2.1,0.1-2.6,0.1-4.6,0.3l-0.3-0.2c0-0.5,0-1.1,0-1.6c0-0.7,0-1.4-0.1-2.1l0.3-0.2
		c2.2-0.1,2.6-0.2,4.6-0.4l0.3,0.2c-0.1,1.6-0.1,2,0,3.7L274.2,212.5z M274.2,238.8c-2.2,0-2.5,0-4.6,0.1l-0.2-0.3
		c0.2-2.1,0.3-3.9,0.3-8.3c0-7.5-0.1-9-0.4-11.3l0.2-0.3c1.8-0.3,2.4-0.3,4.5-0.8l0.4,0.3c-0.1,2-0.3,4.2-0.3,9.3
		c0,7.3,0.1,8.3,0.3,11L274.2,238.8z"/>
	<path class="st0" d="M290.8,226.8c1.7,0.5,5.5,1.7,5.5,5.9c0,1.6-0.6,3.3-2.3,4.7c-2.2,1.8-5.2,1.9-6.7,1.9c-2.3,0-4.1-0.4-5.7-1
		c-0.2-0.1-0.4-0.2-0.6-0.2l-0.2-0.3c0.2-1.6,0.2-1.7,0.2-3.3l0.4-0.1c0.7,0.5,2.6,1.9,5.8,1.9c3.3,0,4.5-1.7,4.5-3
		c0-1.8-1.8-2.4-4.4-3.2l-1.4-0.4c-1.7-0.5-5.5-1.6-5.5-5.7c0-4.1,3.8-6.1,8.5-6.1c3.1,0,5.3,0.8,6,1.1l0.2,0.3
		c-0.2,1.4-0.2,1.6-0.3,3.1l-0.4,0.1c-1-0.6-2.7-1.6-5.4-1.6c-0.6,0-1.2,0-1.8,0.2c-1.3,0.3-2.3,1.2-2.3,2.4c0,1.7,1.7,2.2,4.3,3
		L290.8,226.8z"/>
	<path class="st0" d="M311,226.8c1.7,0.5,5.5,1.7,5.5,5.9c0,1.6-0.6,3.3-2.3,4.7c-2.2,1.8-5.2,1.9-6.7,1.9c-2.3,0-4.2-0.4-5.7-1
		c-0.2-0.1-0.4-0.2-0.7-0.2l-0.2-0.3c0.1-1.6,0.1-1.7,0.2-3.3l0.5-0.1c0.7,0.5,2.6,1.9,5.8,1.9c3.3,0,4.5-1.7,4.5-3
		c0-1.8-1.8-2.4-4.3-3.2l-1.4-0.4c-1.7-0.5-5.5-1.6-5.5-5.7c0-4.1,3.8-6.1,8.5-6.1c3.1,0,5.2,0.8,6,1.1l0.2,0.3
		c-0.2,1.4-0.2,1.6-0.3,3.1l-0.4,0.1c-1-0.6-2.7-1.6-5.4-1.6c-0.6,0-1.2,0-1.8,0.2c-1.3,0.3-2.3,1.2-2.3,2.4c0,1.7,1.7,2.2,4.3,3
		L311,226.8z"/>
	<path class="st0" d="M339.4,233.8c-0.5,0.4-1.5,1.1-3,1.7c-1.2,0.4-2.4,0.6-3.6,0.6c-1.3,0-3.7-0.2-5.4-2.1
		c-1.4-1.6-1.5-3.6-1.6-4.9c6.9,0,8,0,14.6,0l0.3-0.2c0.1-1.7,0.1-5.6-2.3-8.3c-1.2-1.4-3.5-2.7-6.9-2.7c-5.5,0-10.2,3.6-10.2,10.9
		c0,6.9,4.3,10.6,11.2,10.6c3.8,0,6-1.2,6.7-1.5l0.2-0.3c0.1-1.5,0.1-1.9,0.4-3.5L339.4,233.8z M336.3,226c-3.8,0-5.5,0.1-10.5,0
		c0.4-4,3.2-5.5,5.5-5.5c1.9,0,3.7,0.9,4.6,3.1C336.2,224.6,336.2,225.4,336.3,226"/>
	<path class="st0" d="M380.8,228.2c-0.1-2.8-0.6-5.6-2.6-7.7c-1.8-2-4.6-2.8-7.5-2.8c-4.2,0-6.6,1.6-7.8,2.8c-2.8,2.7-2.9,6.5-2.9,8
		c0,1.3,0.1,5.3,2.9,8.1c1.4,1.3,3.7,2.6,7.5,2.6c2.9,0,5.4-0.7,7.2-2.4c1.4-1.3,2.3-2.8,2.7-4.8
		C380.7,230.8,380.8,229.5,380.8,228.2 M376.2,228.3c0,0.9,0,3.5-1,5.3c-1.2,2.2-3.2,2.6-4.8,2.6c-0.9,0-1.7-0.2-2.5-0.5
		c-3.3-1.6-3.4-5.6-3.4-7.2c0-1.7,0.1-4,1.3-5.6c1.5-2.2,3.8-2.3,4.6-2.3c2.4,0,3.7,1,4.5,2.2C376,224.7,376.2,227.4,376.2,228.3"/>
	<path class="st0" d="M403.2,234.1c-0.1,1.7-0.2,1.9-0.3,3.5l-0.3,0.3c-1.2,0.5-2.8,1.3-5.8,1.3c-6.3,0-10.5-4.3-10.5-10.5
		c0-6.3,4-11,10.5-11c2.7,0,4.7,0.8,5.7,1.3l0.2,0.3c-0.2,1.4-0.2,1.9-0.3,3.1l-0.3,0.2c-1.4-1-3-1.6-4.7-1.6
		c-3.5,0-6.6,2.5-6.6,7.6c0,5.4,3.2,7.3,6.5,7.3c2.8,0,4.6-1.4,5.4-2L403.2,234.1z"/>
	<path class="st0" d="M424.3,234.1c-0.2,1.7-0.2,1.9-0.4,3.5l-0.2,0.3c-1.2,0.5-2.9,1.3-5.8,1.3c-6.4,0-10.5-4.3-10.5-10.5
		c0-6.3,4.1-11,10.6-11c2.7,0,4.6,0.8,5.7,1.3l0.2,0.3c-0.2,1.4-0.2,1.9-0.3,3.1l-0.4,0.2c-1.4-1-3-1.6-4.7-1.6
		c-3.5,0-6.5,2.5-6.5,7.6c0,5.4,3.2,7.3,6.5,7.3c2.9,0,4.6-1.4,5.4-2L424.3,234.1z"/>
	<path class="st0" d="M434.3,212.5c-2.2,0.1-2.6,0.1-4.7,0.3l-0.3-0.2c0.1-0.5,0.1-1.1,0.1-1.6c0-0.7-0.1-1.4-0.1-2.1l0.3-0.2
		c2.2-0.1,2.6-0.2,4.7-0.4l0.2,0.2c-0.1,1.6-0.1,2,0,3.7L434.3,212.5z M434.3,238.8c-2.2,0-2.5,0-4.6,0.1l-0.2-0.3
		c0.1-2.1,0.3-3.9,0.3-8.3c0-7.5-0.1-9-0.4-11.3l0.2-0.3c1.8-0.3,2.4-0.3,4.5-0.8l0.4,0.3c-0.1,2-0.3,4.2-0.3,9.3
		c0,7.3,0.1,8.3,0.3,11L434.3,238.8z"/>
	<path class="st0" d="M455.9,208.3c0.2,2.3,0.4,4.7,0.4,9.5c-1.2-0.1-1.6-0.1-2.5-0.1c-2.2,0-6.1,0.1-9.2,2.7
		c-1.8,1.5-3.7,4.2-3.7,8.5c0,6,3.9,10.2,9.4,10.2c3.1,0,4.8-1.3,5.8-2l-0.1,1.5l0.3,0.2c1.9-0.1,2.4-0.1,4.3-0.1l0.2-0.3
		c-0.1-2.7-0.3-5.6-0.3-11.8c0-3.9,0.1-13.7,0.3-19.2l-0.3-0.2c-1.9,0.4-2.3,0.5-4.5,0.8L455.9,208.3z M456.1,233.9
		c-0.6,0.5-2.1,1.7-4.7,1.7c-2.2,0-3.6-0.9-4.3-1.8c-0.9-1-1.6-2.6-1.6-4.9c0-3.5,1.5-5.4,2.4-6.2c2-1.8,4.8-1.9,6.1-1.9
		c0.9,0,1.4,0.1,2.1,0.1C456.2,227.5,456.2,228.7,456.1,233.9"/>
	<path class="st0" d="M485.4,233.8c-0.5,0.4-1.4,1.1-3,1.7c-1.2,0.4-2.5,0.6-3.7,0.6c-1.3,0-3.7-0.2-5.4-2.1
		c-1.4-1.6-1.5-3.6-1.6-4.9c6.9,0,8,0,14.5,0l0.3-0.2c0.1-1.7,0.1-5.6-2.3-8.3c-1.3-1.4-3.6-2.7-6.9-2.7c-5.5,0-10.2,3.6-10.2,10.9
		c0,6.9,4.3,10.6,11.2,10.6c3.8,0,6-1.2,6.7-1.5l0.2-0.3c0.1-1.5,0.1-1.9,0.3-3.5L485.4,233.8z M482.3,226c-3.9,0-5.5,0.1-10.6,0
		c0.4-4,3.2-5.5,5.5-5.5c1.9,0,3.7,0.9,4.6,3.1C482.2,224.6,482.3,225.4,482.3,226"/>
	<path class="st0" d="M511.6,238.8c-2,0-2.3,0-4.2,0.1l-0.3-0.3c0-0.4,0-0.9,0-1.3c0-1.9,0-3.9,0-5.8c0-6.1,0-6.5-0.2-7.3
		c-0.7-3-3.2-3-3.8-3c-2.5,0-4.5,1.4-5.6,2.2c-0.1,6.9,0,10.5,0.3,15.1l-0.3,0.3c-2,0-2.4,0-4.4,0.1l-0.2-0.3
		c0.1-2.2,0.1-4.3,0.1-7.3c0-6.3-0.3-9.7-0.5-12.3l0.2-0.3c2.1-0.3,2.5-0.4,4.4-0.8l0.3,0.3l0,2c1.1-0.7,3.7-2.5,7.4-2.5
		c1,0,2.4,0.1,3.5,0.7c1.1,0.6,2,1.5,2.4,2.6c0.5,1.2,0.6,2.4,0.6,4.8v4.6c0.2,4.6,0.2,6.4,0.3,7.9L511.6,238.8z"/>
	<path class="st0" d="M529,235.7c-0.1,1.3-0.1,1.6-0.2,2.7l-0.2,0.2c-0.9,0.2-1.6,0.3-3.1,0.3c-1,0-3.7,0-5-2
		c-0.7-1.1-0.7-2.1-0.7-6.8l0.1-8.7c-1.5,0-1.5,0.1-3,0.1l-0.2-0.2c0.1-1.3,0.1-1.6,0.1-2.9l0.2-0.2c0.9,0,1.5,0,2.8,0
		c0-0.8,0-1.7,0-2.5c0-0.7-0.1-1.5-0.1-2.3l0.2-0.3c1.9-0.4,2.4-0.5,4.3-1.1l0.3,0.2c-0.1,2.6-0.2,3.1-0.2,6c1.7,0,2.2,0,4.7-0.1
		l0.2,0.2c-0.1,1-0.1,1.4-0.1,2.8l-0.2,0.2c-2.1,0-2.3-0.1-4.6-0.1l-0.1,7.3c0,0.5,0,2.7,0,3.3c0,2.9,0.4,3.8,2.5,3.8
		c0.9,0,1.5-0.2,2-0.4L529,235.7z"/>
	<path class="st0" d="M550.4,226.7c0-1.7,0-3.8-0.3-4.9c-0.9-3.1-3.9-4.1-7-4.1c-2.5,0-4.9,0.5-7.3,1.3l-0.2,0.2
		c0,0.8,0,1.1-0.1,2.9l0.3,0.2c1.7-0.7,3.6-1.5,6.4-1.5c2.1,0,3,0.7,3.5,1.5c0.4,0.6,0.4,1.4,0.4,2.5l-0.7,0.1
		c-7.5,0.8-12.2,2.5-12.2,7.8c0,3.9,2.9,6.6,7.1,6.6c3.2,0,5.1-1.4,5.8-2l0,1.4l0.1,0.2c1.9-0.1,2.3-0.1,4.3-0.1l0.2-0.2
		c-0.2-2.6-0.3-3-0.3-7.9V226.7z M546,227.7v6.6c-0.5,0.4-1.9,1.7-4.5,1.7c-4,0-4-3.4-4-3.6c0-3.5,3.9-4.1,8.2-4.7L546,227.7z"/>
	<path class="st0" d="M562.6,238.8c-2,0-2.4,0-4.4,0.1l-0.2-0.3c0.1-2.8,0.2-6.4,0.2-14c0-5.4,0-11.3-0.4-16.3l0.2-0.3
		c2-0.3,2.5-0.4,4.6-0.8l0.2,0.2c-0.3,5.2-0.3,10.4-0.3,15.6c0,8.6,0.1,11.6,0.4,15.4L562.6,238.8z"/>
	<path class="st0" d="M587.5,233.8c-0.5,0.4-1.4,1.1-3,1.7c-1.1,0.4-2.4,0.6-3.6,0.6c-1.3,0-3.7-0.2-5.4-2.1
		c-1.4-1.6-1.5-3.6-1.6-4.9c6.9,0,8,0,14.6,0l0.3-0.2c0-1.7,0.2-5.6-2.2-8.3c-1.3-1.4-3.6-2.7-6.9-2.7c-5.5,0-10.2,3.6-10.2,10.9
		c0,6.9,4.3,10.6,11.2,10.6c3.8,0,6-1.2,6.7-1.5l0.2-0.3c0.1-1.5,0.1-1.9,0.4-3.5L587.5,233.8z M584.4,226c-3.9,0-5.4,0.1-10.5,0
		c0.4-4,3.2-5.5,5.5-5.5c1.9,0,3.7,0.9,4.6,3.1C584.3,224.6,584.4,225.4,584.4,226"/>
	<path class="st0" d="M15,295.8c-4.2-0.1-5-0.1-10-0.2c-0.1,1.7-0.1,7.8,0.2,12.1l-0.2,0.3c-2.3,0-2.7,0-4.9,0.1L0,307.8
		c0.2-3,0.2-5.3,0.2-17c0-5.6-0.1-8.1-0.2-10.5l0.2-0.3c2.9,0,14,0,16.9-0.1l0.2,0.3c-0.2,1.4-0.2,1.6-0.2,3.2l-0.2,0.2
		c-5.2-0.1-6.6-0.2-11.7-0.2c0,1.6-0.1,5.6-0.1,7.9v0.9c4.8,0,6.2-0.1,10.4-0.2l0.2,0.2c-0.2,1.8-0.2,2-0.3,3.2L15,295.8z"/>
	<path class="st0" d="M37,295.9c0-1.7,0-3.8-0.3-4.9c-0.9-3.1-3.9-4.1-7-4.1c-2.5,0-4.9,0.5-7.2,1.3l-0.3,0.2
		c-0.1,0.8-0.1,1.1-0.1,2.9l0.3,0.2c1.8-0.7,3.6-1.5,6.4-1.5c2.1,0,3,0.8,3.5,1.5c0.4,0.6,0.4,1.4,0.4,2.4L32,294
		c-7.6,0.9-12.3,2.6-12.3,7.8c0,3.9,2.9,6.6,7.1,6.6c3.2,0,5.1-1.4,5.9-2l0,1.4l0.2,0.2c1.9-0.1,2.2-0.1,4.2-0.2l0.2-0.2
		c-0.2-2.6-0.3-3-0.3-7.9V295.9z M32.7,296.8v6.6c-0.5,0.4-2,1.7-4.6,1.7c-4,0-4-3.4-4-3.6c0-3.5,3.9-4.1,8.2-4.7L32.7,296.8z"/>
	<path class="st0" d="M60.6,303.2c-0.2,1.7-0.2,1.9-0.3,3.5l-0.3,0.3c-1.2,0.6-2.9,1.4-5.8,1.4c-6.3,0-10.4-4.3-10.4-10.5
		c0-6.3,4-11,10.5-11c2.7,0,4.7,0.8,5.8,1.3l0.1,0.3c-0.1,1.4-0.2,1.9-0.3,3.1l-0.4,0.1c-1.4-0.9-3-1.5-4.6-1.5
		c-3.5,0-6.5,2.5-6.5,7.6c0,5.4,3.2,7.3,6.5,7.3c2.8,0,4.6-1.4,5.4-2L60.6,303.2z"/>
	<path class="st0" d="M84.4,307.9c-2,0-2.3,0-4.2,0.2l-0.3-0.3l0-1.3c0-2,0-4.1,0-6.2l0-4.2c0-0.9,0-1.8-0.2-2.7
		c-0.5-1.8-1.6-3-3.8-3c-2.4,0-4.2,1.3-5.6,2.2c0,6.9,0.1,10.5,0.3,15.1l-0.2,0.2c-1.9,0-2.4,0-4.5,0.2l-0.2-0.3
		c0.1-2.8,0.2-6.4,0.2-13.9c0-3.3,0-6.6-0.1-9.9c-0.1-3.5-0.2-4.6-0.3-6.4l0.2-0.2c2-0.3,2.7-0.4,4.6-0.8l0.2,0.3
		c-0.2,4.3-0.2,8.5-0.2,12.8c1.3-0.8,4-2.4,7.5-2.4c1,0,1.9,0.1,2.8,0.5c1.9,0.7,3,2.1,3.5,3.7c0.2,0.8,0.2,1.3,0.2,3.9v4.6l0,1.9
		c0.1,3.3,0.1,3.9,0.3,6L84.4,307.9z"/>
	<path class="st0" d="M110.8,307.9c-2,0-2.2,0-4.2,0.2l-0.3-0.3l0.1-1.3c0-2,0-4.1,0-6.2l0-4.2c0-0.9,0-1.8-0.2-2.7
		c-0.5-1.8-1.6-3-3.8-3c-2.4,0-4.2,1.3-5.6,2.2c-0.1,6.9,0,10.5,0.3,15.1l-0.2,0.2c-1.9,0-2.4,0-4.5,0.2l-0.2-0.3
		c0.1-2.8,0.2-6.4,0.2-13.9c0-3.3,0-6.6,0-9.9c-0.1-3.5-0.3-4.6-0.4-6.4l0.2-0.2c2-0.3,2.7-0.4,4.6-0.8l0.2,0.3
		c-0.2,4.3-0.2,8.5-0.2,12.8c1.4-0.8,4-2.4,7.5-2.4c1,0,1.9,0.1,2.8,0.5c1.9,0.7,3,2.1,3.4,3.7c0.2,0.8,0.2,1.3,0.3,3.9v4.6l0,1.9
		c0.1,3.3,0.1,3.9,0.3,6L110.8,307.9z"/>
	<path class="st0" d="M138.2,297.3c-0.1-2.8-0.6-5.5-2.5-7.6c-1.8-2-4.6-2.9-7.5-2.9c-4.2,0-6.6,1.6-7.8,2.8c-2.8,2.7-2.9,6.5-2.9,8
		c0,1.3,0,5.3,2.9,8.1c1.4,1.3,3.8,2.7,7.5,2.7c2.9,0,5.4-0.7,7.2-2.4c1.4-1.3,2.3-2.8,2.8-4.8C138.1,300,138.2,298.7,138.2,297.3
		 M133.6,297.5c0.1,0.9,0,3.5-0.9,5.3c-1.2,2.2-3.2,2.6-4.8,2.6c-0.8,0-1.7-0.2-2.5-0.5c-3.3-1.6-3.3-5.6-3.3-7.1
		c0-1.7,0.1-4,1.2-5.6c1.5-2.2,3.8-2.3,4.6-2.3c2.3,0,3.7,1,4.5,2.2C133.5,293.9,133.6,296.5,133.6,297.5"/>
	<path class="st0" d="M160.7,303.2c-0.2,1.7-0.2,1.9-0.4,3.5L160,307c-1.2,0.6-2.9,1.4-5.8,1.4c-6.3,0-10.4-4.3-10.4-10.5
		c0-6.3,4-11,10.5-11c2.7,0,4.7,0.8,5.8,1.3l0.2,0.3c-0.2,1.4-0.2,1.9-0.3,3.1l-0.3,0.1c-1.4-0.9-3-1.5-4.7-1.5
		c-3.5,0-6.5,2.5-6.5,7.6c0,5.4,3.2,7.3,6.5,7.3c2.8,0,4.6-1.4,5.4-2L160.7,303.2z"/>
	<path class="st0" d="M184.6,307.9c-2,0-2.3,0-4.2,0.2l-0.3-0.3l0.1-1.3c0-2,0-4.1,0-6.2l0-4.2c0-0.9,0-1.8-0.2-2.7
		c-0.4-1.8-1.6-3-3.8-3c-2.4,0-4.2,1.3-5.6,2.2c0,6.9,0.1,10.5,0.3,15.1l-0.2,0.2c-2,0-2.5,0-4.5,0.2l-0.2-0.3
		c0-2.8,0.2-6.4,0.2-13.9c0-3.3,0-6.6-0.1-9.9c-0.1-3.5-0.2-4.6-0.3-6.4l0.2-0.2c2-0.3,2.7-0.4,4.6-0.8l0.2,0.3
		c-0.2,4.3-0.2,8.5-0.2,12.8c1.3-0.8,4-2.4,7.5-2.4c1,0,1.9,0.1,2.8,0.5c1.9,0.7,3,2.1,3.5,3.7c0.2,0.8,0.2,1.3,0.3,3.9v4.6l0,1.9
		c0.1,3.3,0.1,3.9,0.2,6L184.6,307.9z"/>
	<path class="st0" d="M201.2,295.9c1.7,0.5,5.5,1.7,5.5,5.9c0,1.6-0.6,3.4-2.4,4.7c-2.2,1.8-5.2,1.9-6.7,1.9c-2.3,0-4.2-0.4-5.7-1
		c-0.2-0.1-0.4-0.2-0.7-0.2l-0.2-0.4c0.2-1.5,0.2-1.7,0.3-3.3l0.4-0.1c0.7,0.5,2.6,1.9,5.8,1.9c3.3,0,4.5-1.7,4.5-3
		c0-1.8-1.8-2.4-4.4-3.2l-1.3-0.4c-1.7-0.5-5.5-1.7-5.5-5.7c0-4,3.8-6.1,8.5-6.1c3.1,0,5.3,0.8,6,1.1l0.2,0.3
		c-0.2,1.5-0.2,1.6-0.4,3.1l-0.4,0.2c-1-0.6-2.7-1.6-5.4-1.6c-0.6,0-1.2,0-1.8,0.2c-1.2,0.3-2.3,1.1-2.3,2.3c0,1.7,1.7,2.2,4.3,3
		L201.2,295.9z"/>
	<path class="st0" d="M228.3,303.2c-0.2,1.7-0.2,1.9-0.3,3.5l-0.3,0.3c-1.2,0.6-2.8,1.4-5.8,1.4c-6.4,0-10.5-4.3-10.5-10.5
		c0-6.3,4-11,10.6-11c2.7,0,4.6,0.8,5.7,1.3l0.2,0.3c-0.2,1.4-0.2,1.9-0.3,3.1l-0.3,0.1c-1.4-0.9-3-1.5-4.7-1.5
		c-3.5,0-6.5,2.5-6.5,7.6c0,5.4,3.2,7.3,6.5,7.3c2.9,0,4.6-1.4,5.4-2L228.3,303.2z"/>
	<path class="st0" d="M252.2,307.9c-2,0-2.2,0-4.2,0.2l-0.3-0.3l0.1-1.3c0-2,0-4.1,0-6.2l0-4.2c0-0.9,0-1.8-0.2-2.7
		c-0.5-1.8-1.6-3-3.8-3c-2.3,0-4.2,1.3-5.6,2.2c0,6.9,0.1,10.5,0.3,15.1l-0.2,0.2c-1.9,0-2.4,0-4.5,0.2l-0.2-0.3
		c0.1-2.8,0.2-6.4,0.2-13.9c0-3.3,0-6.6-0.1-9.9c-0.1-3.5-0.2-4.6-0.3-6.4l0.2-0.2c2-0.3,2.7-0.4,4.6-0.8l0.2,0.3
		c-0.2,4.3-0.2,8.5-0.2,12.8c1.3-0.8,4-2.4,7.5-2.4c1,0,1.9,0.1,2.8,0.5c1.9,0.7,3,2.1,3.5,3.7c0.2,0.8,0.2,1.3,0.3,3.9v4.6l0,1.9
		c0.1,3.3,0.1,3.9,0.3,6L252.2,307.9z"/>
	<path class="st0" d="M278.5,287.5c-0.1,3-0.1,5.8-0.1,9c0,4.8,0.1,7.8,0.2,9.5c0,0.6,0,1.1,0.1,1.6l-0.2,0.2c-2,0-2.3,0.1-4.3,0.2
		l-0.2-0.3l0.1-1.7c-1,0.6-3.1,2.3-6.6,2.3c-1.7,0-3.4-0.3-4.8-1.3c-2.7-2-2.7-5.4-2.7-8.5v-2.5c-0.1-5.6-0.1-6.3-0.2-8.4l0.2-0.2
		c2,0,2.3,0,4.3-0.2l0.3,0.3l-0.2,8.6c0,1.1,0,1.9,0,3.8c0.1,1.6,0.1,5.2,4.4,5.2c2.5,0,4.3-1.3,5.3-2.1c0-2.1,0-3.9,0-6.2
		c0-5.5,0-6.6-0.3-9.2l0.3-0.3c1.9,0,2.4,0,4.3-0.2L278.5,287.5z"/>
	<path class="st0" d="M290.9,307.9c-2,0-2.5,0.1-4.4,0.2l-0.2-0.3c0.1-2.8,0.2-6.4,0.2-13.9c0-5.4,0-11.3-0.4-16.4l0.2-0.2
		c2-0.3,2.5-0.4,4.5-0.8l0.2,0.3c-0.3,5.2-0.3,10.4-0.3,15.6c0,8.7,0.1,11.6,0.3,15.4L290.9,307.9z"/>
	<path class="st0" d="M315.8,302.9c-0.5,0.5-1.5,1.1-3,1.7c-1.2,0.4-2.4,0.6-3.7,0.6c-1.3,0-3.7-0.2-5.4-2.1
		c-1.4-1.6-1.5-3.6-1.6-4.9c6.8,0,8,0,14.5,0l0.3-0.2c0.1-1.8,0.1-5.6-2.2-8.4c-1.3-1.4-3.6-2.7-6.9-2.7c-5.5,0-10.2,3.6-10.2,10.9
		c0,6.9,4.3,10.6,11.2,10.6c3.7,0,6-1.2,6.7-1.5l0.2-0.3c0.1-1.6,0.1-2,0.4-3.5L315.8,302.9z M312.7,295.2c-3.9,0-5.5,0-10.5,0
		c0.4-4,3.2-5.4,5.5-5.4c1.9,0,3.7,0.9,4.6,3.1C312.6,293.7,312.6,294.6,312.7,295.2"/>
	<path class="st0" d="M364.2,307.9c-2.8,0-3.3,0-6,0.1l-0.3-0.3c-0.7-3.9-0.9-5.1-1.5-8l-3.4-17l-3.5,16.1c-0.2,1.1-0.4,2.2-0.7,3.2
		c-0.3,1.7-0.9,4.6-1.1,5.5l-0.3,0.3c-3,0-3.2,0-6.1,0.1l-0.3-0.3c-0.8-3.6-4.2-18.5-6.5-27.4l0.2-0.3c2.4,0,2.7,0,4.8-0.1l0.3,0.3
		c0.2,1.4,0.5,2.6,0.9,4.6c0.4,1.8,0.7,3.5,1,5.3l3.1,15.1l3.5-17.5c0.6-2.9,0.7-3.4,1.4-7.3l0.2-0.3c3.2,0,3.7,0,6.7-0.1l0.3,0.3
		c0,0.3,0.1,0.6,0.1,1c0.2,1,1.2,6.1,1.4,7.4l3.3,16.7l3.3-15.6c1.5-7.6,1.6-7.8,1.8-9.4l0.3-0.3c2,0,2.4,0,4.1-0.1l0.2,0.3
		c-1,3.1-1.2,4.1-3.5,13.7c-1.1,4.3-2.2,8.6-3.1,12.9c-0.1,0.3-0.1,0.6-0.2,0.8L364.2,307.9z"/>
	<path class="st0" d="M392.3,302.9c-0.5,0.5-1.5,1.1-3,1.7c-1.2,0.4-2.4,0.6-3.7,0.6c-1.3,0-3.7-0.2-5.4-2.1
		c-1.4-1.6-1.6-3.6-1.6-4.9c6.8,0,8,0,14.5,0l0.3-0.2c0-1.8,0.1-5.6-2.3-8.4c-1.2-1.4-3.6-2.7-6.9-2.7c-5.5,0-10.2,3.6-10.2,10.9
		c0,6.9,4.3,10.6,11.2,10.6c3.7,0,6-1.2,6.7-1.5l0.2-0.3c0.1-1.6,0.1-2,0.3-3.5L392.3,302.9z M389.1,295.2c-3.8,0-5.4,0-10.5,0
		c0.4-4,3.1-5.4,5.5-5.4c1.9,0,3.7,0.9,4.6,3.1C389.1,293.7,389.1,294.6,389.1,295.2"/>
	<path class="st0" d="M408.7,295.9c1.7,0.5,5.5,1.7,5.5,5.9c0,1.6-0.7,3.4-2.4,4.7c-2.2,1.8-5.2,1.9-6.7,1.9c-2.3,0-4.1-0.4-5.7-1
		c-0.2-0.1-0.4-0.2-0.6-0.2l-0.2-0.4c0.2-1.5,0.2-1.7,0.3-3.3l0.4-0.1c0.8,0.5,2.6,1.9,5.9,1.9c3.3,0,4.5-1.7,4.5-3
		c0-1.8-1.8-2.4-4.4-3.2l-1.3-0.4c-1.7-0.5-5.5-1.7-5.5-5.7c0-4,3.8-6.1,8.5-6.1c3.1,0,5.3,0.8,6,1.1l0.2,0.3
		c-0.2,1.5-0.2,1.6-0.4,3.1l-0.4,0.2c-1-0.6-2.7-1.6-5.4-1.6c-0.6,0-1.2,0-1.8,0.2c-1.2,0.3-2.3,1.1-2.3,2.3c0,1.7,1.7,2.2,4.3,3
		L408.7,295.9z"/>
	<path class="st0" d="M429.7,304.8c-0.1,1.3-0.1,1.6-0.1,2.7l-0.2,0.2c-0.9,0.2-1.6,0.4-3.1,0.4c-1,0-3.6,0-5-2
		c-0.7-1.2-0.7-2.1-0.7-6.8l0.1-8.7c-1.5,0-1.6,0.1-3,0.1l-0.2-0.2c0.1-1.3,0.1-1.6,0.1-2.9l0.3-0.2c0.9,0,1.5,0,2.9,0
		c-0.1-0.8-0.1-1.7-0.1-2.5c0-0.8-0.1-1.5-0.1-2.3l0.2-0.3c1.9-0.5,2.3-0.6,4.2-1.1l0.3,0.2c-0.1,2.6-0.2,3.1-0.2,6
		c1.8,0,2.3,0,4.7-0.1l0.2,0.2c-0.1,1.1-0.1,1.5-0.1,2.8l-0.2,0.2c-2.1-0.1-2.4-0.1-4.6-0.1l-0.1,7.3c0.1,0.5,0.1,2.7,0.1,3.3
		c0,2.9,0.4,3.8,2.5,3.8c0.9,0,1.5-0.2,2-0.3L429.7,304.8z"/>
	<path class="st0" d="M444,295.9c1.7,0.5,5.5,1.7,5.5,5.9c0,1.6-0.6,3.4-2.4,4.7c-2.2,1.8-5.2,1.9-6.7,1.9c-2.3,0-4.1-0.4-5.7-1
		c-0.2-0.1-0.5-0.2-0.6-0.2l-0.2-0.4c0.1-1.5,0.1-1.7,0.3-3.3l0.4-0.1c0.8,0.5,2.6,1.9,5.9,1.9c3.3,0,4.5-1.7,4.5-3
		c0-1.8-1.8-2.4-4.4-3.2l-1.3-0.4c-1.7-0.5-5.5-1.7-5.5-5.7c0-4,3.8-6.1,8.5-6.1c3.1,0,5.3,0.8,6.1,1.1l0.2,0.3
		c-0.1,1.5-0.2,1.6-0.3,3.1l-0.4,0.2c-1.1-0.6-2.7-1.6-5.4-1.6c-0.6,0-1.2,0-1.8,0.2c-1.2,0.3-2.3,1.1-2.3,2.3c0,1.7,1.7,2.2,4.4,3
		L444,295.9z"/>
	<path class="st0" d="M471.1,303.2c-0.2,1.7-0.2,1.9-0.3,3.5l-0.3,0.3c-1.2,0.6-2.8,1.4-5.8,1.4c-6.3,0-10.5-4.3-10.5-10.5
		c0-6.3,4.1-11,10.6-11c2.7,0,4.6,0.8,5.7,1.3l0.2,0.3c-0.2,1.4-0.2,1.9-0.3,3.1l-0.3,0.1c-1.4-0.9-3-1.5-4.7-1.5
		c-3.5,0-6.5,2.5-6.5,7.6c0,5.4,3.2,7.3,6.5,7.3c2.9,0,4.6-1.4,5.4-2L471.1,303.2z"/>
	<path class="st0" d="M495,307.9c-2,0-2.3,0-4.2,0.2l-0.3-0.3l0-1.3c0.1-2,0.1-4.1,0.1-6.2l-0.1-4.2c0-0.9,0-1.8-0.2-2.7
		c-0.4-1.8-1.6-3-3.7-3c-2.4,0-4.3,1.3-5.6,2.2c-0.1,6.9,0,10.5,0.3,15.1l-0.2,0.2c-1.9,0-2.4,0-4.5,0.2l-0.2-0.3
		c0.1-2.8,0.2-6.4,0.2-13.9c0-3.3,0-6.6-0.1-9.9c-0.1-3.5-0.2-4.6-0.3-6.4l0.2-0.2c2-0.3,2.7-0.4,4.6-0.8l0.3,0.3
		c-0.3,4.3-0.3,8.5-0.3,12.8c1.4-0.8,4-2.4,7.5-2.4c1,0,1.9,0.1,2.9,0.5c1.9,0.7,3,2.1,3.4,3.7c0.2,0.8,0.2,1.3,0.3,3.9v4.6l0,1.9
		c0.1,3.3,0.1,3.9,0.3,6L495,307.9z"/>
	<path class="st0" d="M526.8,307.9c-2.8,0-3.2,0-5.7,0.2l-0.3-0.3c-0.5-2.4-1.3-5.6-2-8.4l-2.4-9.5l-2.5,9.7
		c-1.3,4.8-1.7,6.4-2.1,8.1l-0.2,0.2c-2.9,0-3.1,0-5.8,0.2l-0.2-0.3c-1.9-7.1-5-17.4-5.9-20l0.1-0.2c2-0.1,2.6-0.1,4.6-0.4l0.3,0.3
		c0.2,1.3,0.5,2.5,2.3,9.8l2,8.1l2.7-10.6c1.3-5.2,1.4-5.8,1.6-7.1l0.3-0.2c2.5,0,3.2,0,6-0.1l0.2,0.3c0.6,2.7,1.6,6.5,2.4,9.5
		l2.2,8.4l2.3-9.2c0.4-1.4,0.7-2.8,1-4.2c0.7-2.7,0.8-3,1-4.5l0.3-0.2c0.6,0,1.4,0,2,0c0.6,0,1.3,0,1.9,0l0.2,0.2
		c-0.8,2.3-4.5,13.3-6.2,20L526.8,307.9z"/>
	<path class="st0" d="M555,302.9c-0.6,0.5-1.5,1.1-3,1.7c-1.2,0.4-2.4,0.6-3.6,0.6c-1.3,0-3.7-0.2-5.4-2.1c-1.4-1.6-1.5-3.6-1.6-4.9
		c6.9,0,8,0,14.6,0l0.2-0.2c0.1-1.8,0.1-5.6-2.2-8.4c-1.3-1.4-3.6-2.7-6.9-2.7c-5.5,0-10.2,3.6-10.2,10.9c0,6.9,4.3,10.6,11.2,10.6
		c3.7,0,6-1.2,6.7-1.5l0.2-0.3c0.1-1.6,0.1-2,0.3-3.5L555,302.9z M551.8,295.2c-3.9,0-5.4,0-10.5,0c0.4-4,3.2-5.4,5.5-5.4
		c1.9,0,3.7,0.9,4.6,3.1C551.7,293.7,551.8,294.6,551.8,295.2"/>
	<path class="st0" d="M567.2,281.6c-2.1,0.1-2.6,0.1-4.7,0.3l-0.2-0.2c0-0.5,0-1,0-1.5c0-0.7,0-1.4-0.1-2.1l0.3-0.2
		c2.2-0.2,2.6-0.2,4.7-0.4l0.3,0.2c0,1.6,0,2,0,3.8L567.2,281.6z M567.1,307.9c-2.2,0-2.5,0-4.6,0.2l-0.2-0.3
		c0.1-2.1,0.2-3.9,0.2-8.3c0-7.6-0.1-9-0.4-11.3l0.2-0.3c1.8-0.3,2.4-0.4,4.5-0.8l0.4,0.2c-0.1,2.1-0.2,4.2-0.2,9.3
		c0,7.3,0.1,8.4,0.2,11L567.1,307.9z"/>
	<path class="st0" d="M588.9,307.9c-1.2,0-6.9,0-8.2,0c-4.9,0-5.5,0-8,0.1l-0.2-0.4c3.2-5,8.2-13.4,10.4-17.2c-5.5,0-6.6,0-9.2,0.1
		l-0.2-0.2c0.2-1.3,0.2-1.6,0.3-2.7l0.2-0.2c7,0,7.9,0,15.2-0.1l0.2,0.3c-3.8,5.8-9.1,15.2-10.2,17.2c3.6-0.1,7.2-0.1,10.1-0.2
		l0.2,0.2c-0.2,1.2-0.2,1.8-0.3,2.9L588.9,307.9z"/>
	<path class="st0" d="M466,68.8c7.3,2.2,23.8,7.5,23.8,25.7c0,6.8-2.7,14.6-10.2,20.2c-9.6,7.7-22.6,8.2-29.1,8.2
		c-9.8,0-18-1.7-24.9-4.3c-0.9-0.3-1.8-0.7-2.8-1l-0.9-1.5c0.7-6.7,0.7-7.6,1.1-14.4l1.8-0.5c3.3,2.4,11.3,8.3,25.3,8.3
		c14.4,0,19.7-7.6,19.7-12.9c0-7.9-7.8-10.4-18.9-13.9l-5.8-1.9c-7.5-2.2-23.9-7.2-23.9-24.9c0-17.7,16.4-26.4,36.8-26.4
		c13.5,0,22.9,3.6,26.2,4.8l0.9,1.2c-0.7,6.3-0.9,7-1.4,13.5l-1.7,0.7c-4.5-2.7-11.6-6.9-23.5-6.9c-2.6,0-5.1,0.2-7.8,0.8
		c-5.5,1.4-10,5-10,10.3c0,7.4,7.4,9.6,18.8,12.9L466,68.8z"/>
	<path class="st0" d="M595.3,75c-0.4-12-2.7-24-11.1-33.1c-8-8.6-20.3-12.3-32.6-12.3c-18.2,0-28.8,7-33.9,12
		c-12.2,11.5-12.6,28.3-12.6,34.8c0,5.7,0.2,23.2,12.6,35c5.8,5.7,16.2,11.5,32.6,11.5c12.8,0,23.5-2.9,31.5-10.5
		c6-5.7,9.8-12.4,11.8-20.7C594.9,86.5,595.3,80.8,595.3,75 M575.4,75.7c0.2,3.6,0,15.1-4.2,22.8c-5.3,9.4-14,11.5-20.8,11.5
		c-3.7,0-7.5-0.7-10.8-2.2c-14.4-6.8-14.6-24.2-14.6-31c0-7.2,0.6-17.2,5.5-24.2c6.4-9.6,16.6-9.9,20-9.9c10.2,0,16,4.4,19.5,9.8
		C574.7,59.9,575.4,71.4,575.4,75.7"/>
	<path class="st0" d="M400.4,76.4c0,6-4.8,10.8-10.8,10.8c-6,0-10.8-4.9-10.8-10.8c0-6,4.8-10.9,10.8-10.9
		C395.6,65.6,400.4,70.4,400.4,76.4"/>
	<path class="st0" d="M150.9,1c-0.2,13.2-0.4,21.3-0.4,33.3c0,28.8,0.6,57.5,2,86.3l-0.9,1c-15.5-0.2-19.1,0-32.7,0.5l-0.9-1
		c0.9-24.2,0.9-29.9,0.5-53c-7.3-0.2-14.6-0.3-21.9-0.3c-7.1,0-13.8,0.1-21.9,0.5c0.2,24.9,0.4,31.1,1.5,52.3l-0.9,1
		c-16-0.2-19.3,0-32.6,0.5l-0.9-1c0.4-14.4,0.7-22.8,0.7-38.3c0-42.5-1.1-63.6-2-81.3l1.1-1c15.8,0,18.6,0,32.6-0.5l0.9,1l-0.4,45.3
		c6.4,0,12.9,0.2,19.3,0.2c8.2,0,16.2-0.2,24.2-0.4c-0.2-20.2-0.2-25.2-1.5-44.6l0.9-1c15.3,0,17.7,0,32.3-0.5L150.9,1z"/>
	<path class="st0" d="M256.5,96.2c-6.9,3.4-15.1,7.4-28.4,7.4c-10.9,0-18.4-3.2-22.7-9.4c-2.7-3.6-3.3-7-4-10.5l58.8-1l1.1-1.2
		c-0.2-8.4-0.4-17-2.9-25.6c-6.4-20.2-20.4-24.3-26.6-25.7c-4.6-1.2-8.8-1.5-12.9-1.5c-28.6,0-47.5,17.7-47.5,47.3
		c0,8.1,1.5,16.5,4.4,22.5c10.6,23.2,35.3,25.2,48.4,25.2c15.1,0,21.7-2.6,31.3-6.2l1.1-1.4l1.3-19.4L256.5,96.2z M201.4,65.5
		c0.5-5.3,1.8-12.5,8.7-16.6c2.2-1.3,4.7-1.9,7.3-1.9c6,0,9.6,2.9,11.6,6c2.5,3.8,2.7,7.9,2.7,11.9L201.4,65.5z"/>
	<path class="st0" d="M333.3,65.5c10,3.6,24,8.6,24,27.5c0,1.2,0,2.4-0.2,3.8c-3.3,24.5-30.6,26.9-44.4,26.9
		c-13.3,0-20.9-2.7-29.9-5.9l-0.9-1.6c0.7-8.6,0.9-10.5,1.3-19.4l1.6-0.7c2.7,2.1,4.2,3.2,7.3,4.8c6.8,3.3,14.2,4.8,19.3,4.8
		c10.2,0,14.4-4.6,14.4-8.9c0-6.2-8-8.7-13-10.3l-6.9-2.4c-8.5-3.1-23.7-8.6-23.7-26.9c0-6.9,2.5-12,4.9-15.1
		c9.5-12.9,27.3-13.5,36.2-13.5c11.8,0,19.3,2,27.9,4.3l0.9,1l-1.8,18.7l-1.7,0.5c-4.5-2.7-11.6-7.2-22.7-7.2
		c-11.3,0-12.8,5.7-12.8,7.7c0,4.8,4.9,6.7,11.1,8.7L333.3,65.5z"/>
</g>
</svg>
