<svg xmlns="http://www.w3.org/2000/svg" viewBox="0 0 554.8 123.7"><defs><style>.cls-1{fill:#878787;}</style></defs><g id="Layer_2" data-name="Layer 2"><g id="Calque_1" data-name="Calque 1"><path class="cls-1" d="M425.5,68.8c7.3,2.2,23.8,7.5,23.8,25.7a24.82,24.82,0,0,1-10.2,20.2c-9.6,7.7-22.6,8.2-29.1,8.2a69.87,69.87,0,0,1-24.9-4.3c-.9-.3-1.8-.7-2.8-1l-.9-1.5c.7-6.7.7-7.6,1.1-14.4l1.8-.5a40.33,40.33,0,0,0,25.3,8.3c14.4,0,19.7-7.6,19.7-12.9,0-7.9-7.8-10.4-18.9-13.9l-5.8-1.9c-7.5-2.2-23.9-7.2-23.9-24.9s16.4-26.4,36.8-26.4a73,73,0,0,1,26.2,4.8l.9,1.2c-.7,6.3-.9,7-1.4,13.5l-1.7.7A42.1,42.1,0,0,0,418,42.8a35,35,0,0,0-7.8.8c-5.5,1.4-10,5-10,10.3,0,7.4,7.4,9.6,18.8,12.9Z"/><path class="cls-1" d="M554.8,75c-.4-12-2.7-24-11.1-33.1-8-8.6-20.3-12.3-32.6-12.3-18.2,0-28.8,7-33.9,12C465,53.1,464.6,69.9,464.6,76.4c0,5.7.2,23.2,12.6,35,5.8,5.7,16.2,11.5,32.6,11.5,12.8,0,23.5-2.9,31.5-10.5a40.62,40.62,0,0,0,11.8-20.7A69.59,69.59,0,0,0,554.8,75m-19.9.7c.2,3.6,0,15.1-4.2,22.8-5.3,9.4-14,11.5-20.8,11.5a26.42,26.42,0,0,1-10.8-2.2c-14.4-6.8-14.6-24.2-14.6-31,0-7.2.6-17.2,5.5-24.2,6.4-9.6,16.6-9.9,20-9.9,10.2,0,16,4.4,19.5,9.8,4.7,7.4,5.4,18.9,5.4,23.2"/><path class="cls-1" d="M359.9,76.4a10.8,10.8,0,1,1-10.8-10.9,10.9,10.9,0,0,1,10.8,10.9"/><path class="cls-1" d="M110.4,1c-.2,13.2-.4,21.3-.4,33.3,0,28.8.6,57.5,2,86.3l-.9,1c-15.5-.2-19.1,0-32.7.5l-.9-1c.9-24.2.9-29.9.5-53q-10.95-.3-21.9-.3c-7.1,0-13.8.1-21.9.5.2,24.9.4,31.1,1.5,52.3l-.9,1c-16-.2-19.3,0-32.6.5l-.9-1c.4-14.4.7-22.8.7-38.3C2,40.3.9,19.2,0,1.5L1.1.5C16.9.5,19.7.5,33.7,0l.9,1-.4,45.3c6.4,0,12.9.2,19.3.2,8.2,0,16.2-.2,24.2-.4-.2-20.2-.2-25.2-1.5-44.6l.9-1C92.4.5,94.8.5,109.4,0Z"/><path class="cls-1" d="M216,96.2c-6.9,3.4-15.1,7.4-28.4,7.4-10.9,0-18.4-3.2-22.7-9.4-2.7-3.6-3.3-7-4-10.5l58.8-1,1.1-1.2c-.2-8.4-.4-17-2.9-25.6-6.4-20.2-20.4-24.3-26.6-25.7a49.71,49.71,0,0,0-12.9-1.5c-28.6,0-47.5,17.7-47.5,47.3,0,8.1,1.5,16.5,4.4,22.5,10.6,23.2,35.3,25.2,48.4,25.2,15.1,0,21.7-2.6,31.3-6.2l1.1-1.4,1.3-19.4ZM160.9,65.5c.5-5.3,1.8-12.5,8.7-16.6a14.21,14.21,0,0,1,7.3-1.9c6,0,9.6,2.9,11.6,6,2.5,3.8,2.7,7.9,2.7,11.9Z"/><path class="cls-1" d="M292.8,65.5c10,3.6,24,8.6,24,27.5a25.5,25.5,0,0,1-.2,3.8c-3.3,24.5-30.6,26.9-44.4,26.9-13.3,0-20.9-2.7-29.9-5.9l-.9-1.6c.7-8.6.9-10.5,1.3-19.4l1.6-.7a40,40,0,0,0,7.3,4.8,47.35,47.35,0,0,0,19.3,4.8c10.2,0,14.4-4.6,14.4-8.9,0-6.2-8-8.7-13-10.3l-6.9-2.4c-8.5-3.1-23.7-8.6-23.7-26.9a24.53,24.53,0,0,1,4.9-15.1c9.5-12.9,27.3-13.5,36.2-13.5,11.8,0,19.3,2,27.9,4.3l.9,1-1.8,18.7-1.7.5c-4.5-2.7-11.6-7.2-22.7-7.2-11.3,0-12.8,5.7-12.8,7.7,0,4.8,4.9,6.7,11.1,8.7Z"/></g></g></svg>