<?xml version="1.0" encoding="utf-8"?>
<!-- Generator: Adobe Illustrator 24.1.2, SVG Export Plug-In . SVG Version: 6.00 Build 0)  -->
<svg version="1.1" id="Calque_1" xmlns="http://www.w3.org/2000/svg" xmlns:xlink="http://www.w3.org/1999/xlink" x="0px" y="0px"
	 viewBox="0 0 595.3 129.4" style="enable-background:new 0 0 595.3 129.4;" xml:space="preserve">
<style type="text/css">
	.st0{fill:#878787;}
</style>
<g>
	<path class="st0" d="M204.4,104.4c0-8.7-3.7-16.8-16.5-16.8c-6.3,0-11.5,1.7-14.4,3.5l2,6.6c2.7-1.7,6.8-2.9,10.8-2.9
		c7.1,0,8.1,4.3,8.1,7v0.7c-14.8-0.1-23.7,5-23.7,15.1c0,6.1,4.5,11.9,12.6,11.9c5.2,0,9.4-2.2,11.8-5.3h0.2l0.7,4.4h9.1
		c-0.4-2.5-0.6-6-0.6-9.6V104.4z M194.6,114.5c0,0.7-0.1,1.5-0.3,2.2c-0.9,2.9-3.9,5.5-7.9,5.5c-3.2,0-5.7-1.8-5.7-5.8
		c0-6.1,6.8-7.6,13.9-7.5V114.5z M215.1,128.5h10.1v-20.7c0-1.2,0.2-2.2,0.3-3.1c0.9-4.5,4.2-7.6,9-7.6c1.2,0,2.1,0.2,3,0.3v-9.5
		c-0.8-0.2-1.4-0.2-2.4-0.2c-4.3,0-8.9,2.9-10.9,8.5h-0.3l-0.3-7.6h-8.8c0.2,3.6,0.3,7.5,0.3,12.9V128.5z M271.6,119.8
		c-2,0.8-4.4,1.6-8,1.6c-6.9,0-12.2-4.7-12.2-12.9c-0.1-7.3,4.5-13,12.2-13c3.6,0,6,0.8,7.6,1.6l1.8-7.5c-2.3-1.1-6.1-1.9-9.8-1.9
		c-14,0-22.2,9.4-22.2,21.3c0,12.4,8.1,20.4,20.6,20.4c5,0,9.2-1.1,11.3-2.1L271.6,119.8z M280.4,128.5h10.2v-23.9
		c0-1.2,0.1-2.2,0.4-3c1.1-3,3.9-5.7,7.8-5.7c5.6,0,7.7,4.3,7.7,10.2v22.4h10.1v-23.6c0-12.8-7.1-17.3-14-17.3
		c-2.5,0-4.9,0.7-6.9,1.8c-2,1.1-3.8,2.7-5,4.6h-0.2V70.2h-10.2V128.5z M337.5,88.5h-10.2v40h10.2V88.5z M332.5,71.9
		c-3.4,0-5.7,2.4-5.7,5.5c0,3,2.2,5.4,5.6,5.4c3.5,0,5.7-2.4,5.7-5.4C338,74.3,335.9,71.9,332.5,71.9 M350.1,81.2v7.4h-5.7v7.6h5.7
		v18.8c0,5.2,1,8.9,3.1,11.2c1.9,2.1,5,3.4,8.7,3.4c3.2,0,5.8-0.5,7.3-1.1l-0.2-7.7c-1.1,0.3-2,0.5-3.9,0.5c-3.9,0-5.2-2.5-5.2-7.4
		V96.1h9.6v-7.6h-9.6V78.3L350.1,81.2z M410.6,111.3c0.2-0.9,0.3-2.4,0.3-4.3c0-8.8-4.2-19.5-17.2-19.5c-12.8,0-19.5,10.4-19.5,21.5
		c0,12.2,7.6,20.3,20.6,20.3c5.7,0,10.5-1.1,14-2.5l-1.5-7c-3,1.1-6.4,1.8-11.1,1.8c-6.4,0-12.1-3.1-12.3-10.3H410.6z M383.8,104.3
		c0.4-4.1,3-9.8,9.3-9.8c6.7,0,8.4,6.1,8.3,9.8H383.8z M447,119.8c-2,0.8-4.4,1.6-8,1.6c-6.9,0-12.2-4.7-12.2-12.9
		c-0.1-7.3,4.5-13,12.2-13c3.6,0,6,0.8,7.6,1.6l1.8-7.5c-2.3-1.1-6.1-1.9-9.8-1.9c-14,0-22.2,9.4-22.2,21.3
		c0,12.4,8.1,20.4,20.6,20.4c5,0,9.2-1.1,11.3-2.1L447,119.8z M458.8,81.2v7.4h-5.7v7.6h5.7v18.8c0,5.2,1,8.9,3.1,11.2
		c1.9,2.1,5,3.4,8.7,3.4c3.2,0,5.8-0.5,7.3-1.1l-0.2-7.7c-1.2,0.3-2,0.5-3.9,0.5c-3.9,0-5.2-2.5-5.2-7.4V96.1h9.6v-7.6h-9.6V78.3
		L458.8,81.2z M521.7,88.5h-10.1v24.1c0,1.1-0.2,2.2-0.6,3.1c-1.1,2.5-3.7,5.4-7.7,5.4c-5.3,0-7.5-4.3-7.5-10.9V88.5h-10.1V112
		c0,13,6.6,17.4,13.9,17.4c7.1,0,11.1-4.1,12.8-7h0.2l0.5,6.1h8.9c-0.2-3.3-0.3-7.2-0.3-12V88.5z M532.6,128.5h10.1v-20.7
		c0-1.2,0.2-2.2,0.3-3.1c0.9-4.5,4.2-7.6,9-7.6c1.2,0,2.1,0.2,3,0.3v-9.5c-0.8-0.2-1.4-0.2-2.4-0.2c-4.3,0-8.9,2.9-10.9,8.5h-0.3
		l-0.3-7.6h-8.8c0.2,3.6,0.3,7.5,0.3,12.9V128.5z M594.9,111.3c0.2-0.9,0.3-2.4,0.3-4.3c0-8.8-4.2-19.5-17.2-19.5
		c-12.8,0-19.5,10.4-19.5,21.5c0,12.2,7.6,20.3,20.6,20.3c5.8,0,10.5-1.1,14-2.5l-1.5-7c-3,1.1-6.4,1.8-11.1,1.8
		c-6.4,0-12.1-3.1-12.3-10.3H594.9z M568.2,104.3c0.4-4.1,3-9.8,9.3-9.8c6.7,0,8.4,6.1,8.3,9.8H568.2z"/>
	<path class="st0" d="M157.3,69.3c-3.4,0-7,1.1-9.7,3.7c-3.4,3.2-4.6,8.3-4.6,13.9v1.9h-5.6v5.5h5.6v34.2h7.1V94.3h9.6v-5.5h-9.6
		v-2.1c0-6.1,1.6-11.5,7.7-11.5c2.1,0,3.5,0.4,4.6,0.9l1-5.6C162.1,69.9,159.8,69.3,157.3,69.3 M114.1,87.9
		c-11,0-19.7,7.8-19.7,21.1c0,12.6,8.3,20.4,19,20.4c9.6,0,19.8-6.4,19.8-21.1C133.2,96.2,125.5,87.9,114.1,87.9 M113.7,124
		c-7.1,0-12.1-6.6-12.1-15.3c0-7.5,3.7-15.4,12.2-15.4c8.5,0,11.9,8.5,11.9,15.3C125.8,117.5,120.6,124,113.7,124"/>
	<path class="st0" d="M173.4,55.4h9.8V31.8c0-1.1,0.2-2.3,0.6-3.3c0.9-2.8,3.4-5.7,7.2-5.7c4.7,0,6.9,3.9,6.9,9.5v23.1h9.8v-24
		c0-1.1,0.2-2.4,0.5-3.4c1.1-2.9,3.6-5.3,7.1-5.3c4.8,0,7.1,3.9,7.1,10.6v22.1h9.8V31.8c0-12.8-6.7-17.3-13.4-17.3
		c-3.3,0-5.8,0.8-8,2.4c-1.9,1.1-3.5,2.8-4.9,5h-0.2c-1.7-4.4-5.8-7.4-11.1-7.4c-6.7,0-10.3,3.7-12.3,6.8h-0.2l-0.4-5.9h-8.7
		c0.2,3.4,0.3,7.3,0.3,11.9V55.4z M274,31.3c0-8.7-3.7-16.8-16.5-16.8c-6.3,0-11.5,1.7-14.4,3.5l2,6.6c2.7-1.7,6.8-3,10.8-3
		c7.1,0,8.1,4.3,8.1,7v0.7c-14.8-0.1-23.7,5-23.7,15.1c0,6.1,4.5,11.9,12.6,11.9c5.2,0,9.4-2.2,11.8-5.3h0.2l0.7,4.4h9.1
		c-0.4-2.5-0.6-6-0.6-9.6V31.3z M264.2,41.4c0,0.7-0.1,1.5-0.3,2.2c-0.9,2.9-3.9,5.5-7.9,5.5c-3.2,0-5.8-1.8-5.8-5.7
		c0-6.1,6.8-7.6,14-7.5V41.4z M282.2,53.4c2.9,1.6,7.3,2.9,12.1,2.9c10.6,0,16.2-5.3,16.2-12.6c-0.1-5.9-3.4-9.6-10.7-12.2
		c-5.1-1.8-7-3-7-5.6c0-2.5,2-4.2,5.6-4.2c3.5,0,6.7,1.3,8.5,2.3l2-7.1c-2.3-1.2-6.2-2.4-10.6-2.4c-9.3,0-15.1,5.5-15.1,12.6
		c-0.1,4.7,3.2,9,11,11.7c4.9,1.7,6.6,3.1,6.6,5.8c0,2.6-2,4.4-6.4,4.4c-3.6,0-8-1.5-10.3-2.9L282.2,53.4z M320.6,8v7.4h-5.7V23h5.7
		v18.8c0,5.2,1,8.9,3.1,11.2c1.9,2.1,5,3.4,8.7,3.4c3.2,0,5.8-0.5,7.3-1.1l-0.2-7.7c-1.1,0.3-2.1,0.5-3.9,0.5
		c-3.9,0-5.2-2.5-5.2-7.4V23h9.6v-7.5h-9.6V5.2L320.6,8z M381.1,38.2c0.2-0.9,0.3-2.4,0.3-4.3c0-8.8-4.2-19.4-17.2-19.4
		c-12.8,0-19.5,10.4-19.5,21.5c0,12.2,7.6,20.3,20.6,20.3c5.8,0,10.5-1.1,14-2.5l-1.5-7c-3,1.1-6.4,1.8-11.1,1.8
		c-6.4,0-12.1-3.1-12.3-10.3H381.1z M354.4,31.2c0.4-4.1,3-9.8,9.3-9.8c6.7,0,8.4,6.1,8.3,9.8H354.4z M389.6,55.4h10.1V34.7
		c0-1.1,0.2-2.2,0.3-3.1c0.9-4.5,4.2-7.6,9-7.6c1.2,0,2.1,0.2,3,0.3v-9.5c-0.8-0.2-1.4-0.2-2.4-0.2c-4.3,0-8.9,2.9-10.9,8.5h-0.3
		l-0.3-7.6h-8.8c0.2,3.6,0.3,7.5,0.3,12.9V55.4z"/>
	<path class="st0" d="M78.3,0c-2.6,0-4.5,2-4.5,4.5c0,2.5,1.8,4.4,4.3,4.4c2.9,0,4.7-2,4.6-4.4C82.7,2,81,0,78.3,0 M14.3,0
		c-2.7,0-4.6,2-4.6,4.5c0,2.4,1.7,4.4,4.4,4.4c2.9,0,4.6-2.1,4.5-4.4C18.6,2,16.9,0,14.3,0 M147.8,6.2l-7,2.2v7.3h-6.2v5.5h6.2v21.7
		c0,4.7,0.7,8.2,2.8,10.3c1.7,2,4.4,3.1,7.8,3.1c2.8,0,5-0.5,6.4-1.1l-0.3-5.4c-1.1,0.3-2.2,0.5-4.2,0.5c-4,0-5.4-2.8-5.4-7.7V21.2
		h10.3v-5.5h-10.3V6.2z M113.6,14.8c-6.6,0-11.2,3.7-13.1,7.5h-0.2l-0.4-6.6h-6.4c0.2,3.3,0.3,6.6,0.3,10.7v29h7.2V31.5
		c0-1.2,0.2-2.5,0.5-3.4c1.2-4,4.9-7.4,9.7-7.4c6.8,0,9.2,5.3,9.2,11.7v22.9h7.2V31.7C127.7,18.1,119.1,14.8,113.6,14.8 M46.4,14.8
		c-11,0-19.7,7.8-19.7,21.1c0,12.6,8.3,20.4,19,20.4c9.6,0,19.8-6.4,19.8-21.1C65.6,23.1,57.9,14.8,46.4,14.8 M46.1,50.9
		c-7,0-12.1-6.6-12.1-15.3c0-7.6,3.7-15.4,12.2-15.4c8.5,0,11.9,8.5,11.9,15.3C58.2,44.4,53,50.9,46.1,50.9 M81.9,15.7h-7.2v39.7
		h7.2V15.7z M17.8,15.7h-7.2v33.4c0,9.5-0.7,12.7-2.7,14.9c-1.7,1.9-4.6,2.8-7.9,3l0.7,5.7c3.9,0,9.1-1.3,12.3-4.5
		c3.5-3.6,4.8-8.6,4.8-16.3V15.7z"/>
</g>
</svg>
