<?xml version="1.0" encoding="utf-8"?>
<!-- Generator: Adobe Illustrator 24.1.2, SVG Export Plug-In . SVG Version: 6.00 Build 0)  -->
<svg version="1.1" id="Calque_1" xmlns="http://www.w3.org/2000/svg" xmlns:xlink="http://www.w3.org/1999/xlink" x="0px" y="0px"
	 viewBox="0 0 595.3 75.5" style="enable-background:new 0 0 595.3 75.5;" xml:space="preserve">
<style type="text/css">
	.st0{fill:#878787;}
</style>
<path class="st0" d="M549,50.5h-2.3v11.3h2.3V50.5z M549.1,45.8h-2.4v2.4h2.4V45.8z M476.7,50.7h-1.3v1.7h1.3v6.2
	c0,1.6,1,3.1,3.1,3.1h1.4v-1.9h-0.9c-0.9,0-1.3-0.5-1.3-1.3v-6.1h2.2v-1.7H479v-3.4h-2.3V50.7z M440,50.5h-2.3v11.3h2.3V50.5z
	 M440.1,45.8h-2.4v2.4h2.4V45.8z M406.7,50.5h-2.2v11.3h2.3v-6.9c0-1.6,1-2.5,2.3-2.5c0.8,0,1.2,0.2,1.7,0.8l1.7-1.7
	c-0.8-0.8-1.6-1.1-2.7-1.1c-1.3,0-2.4,0.6-3,1.4V50.5z M324.1,50.5h-2.3v11.3h2.3V50.5z M297.2,24.9h-2.3v11.3h2.3V24.9z
	 M271.6,45.9h-11.2v2.2h4.4v13.7h2.4V48.1h4.4V45.9z M248.4,50.5h-2.2v11.3h2.3v-6.9c0-1.6,1-2.5,2.3-2.5c0.8,0,1.2,0.2,1.7,0.8
	l1.7-1.7c-0.8-0.8-1.6-1.1-2.7-1.1c-1.3,0-2.4,0.6-3,1.4V50.5z M226,50.7h-1.3v1.7h1.3v9.4h2.3v-9.4h2.3v-1.7h-2.3V49
	c0-0.8,0.4-1.3,1.2-1.3h1v-1.9h-1.4c-2.1,0-3.1,1.5-3.1,3.2V50.7z M142,45.9h-2.3v15.9h2.3v-6.9c0-1.7,1-2.5,2.3-2.5
	c1.3,0,2.3,0.8,2.3,2.5v6.9h2.3v-7.3c0-2.5-1.4-4.2-3.9-4.2c-1.1,0-2.1,0.4-2.9,1.3V45.9z M13.3,59.2H0.1H0v0.1v2.3v0.1h0.1h75.9
	h0.1v-0.1v-2.3v-0.1h-0.1h-3.9l2.2-9l-5.2,0.6V34.4h-2.5v24.8H39.5v-2.9l-27.8,1.8V59L13.3,59.2z M62.8,54.9v-0.2v-3.6v-0.5
	c-1.1-0.2-4.3-0.4-8.9-0.4c-4.4,0-7.5,0.2-8.7,0.4v0.5v3.7v0.1c0.1,0,0.2,0,0.3-0.1c0.1,0,0.2,0,0.4,0c0.2,0,0.4,0,0.4,0v0
	c1.4-0.1,4.3-0.2,7.8-0.2c3.3,0,6,0.1,7.5,0.2c0.2,0,0.7,0,1,0.1c0.1,0,0.1,0,0.1,0C62.7,54.9,62.8,54.9,62.8,54.9 M62.8,36.1
	c-1-0.4-3.9-0.9-8.9-0.9c-4.8,0-7.8,0.5-8.8,0.8v1.1v2.4c2.3-0.6,6.6-0.7,8.8-0.7c2.2,0,6.7,0.1,8.9,0.7v-2.4V36.1z M53.9,33.9
	c1.8,0,6.5,0.1,8.9,0.8v-1.1v-2.3c-1-0.4-3.9-1-8.8-1c-4.9,0-7.8,0.6-8.8,1v2.4v1.1C47.5,34,52.2,33.9,53.9,33.9 M62.8,40.9
	c-1-0.3-3.9-0.7-8.9-0.7c-4.8,0-7.7,0.4-8.8,0.7V44v0.4c2.1-0.5,6.1-0.5,8.8-0.5c2.7,0,6.8,0.1,8.9,0.6V44V40.9z M62.8,45.7
	c-1.1-0.3-4.3-0.6-8.9-0.6c-4.4,0-7.6,0.3-8.8,0.5V46v1.5v1.7c2.1-0.3,6.1-0.4,8.7-0.4c2.7,0,6.9,0.1,8.9,0.4v-1.7V45.7z M45.1,26.8
	v3.1c2.5-0.9,7.6-0.9,8.8-0.9c1.3,0,6.3,0.1,8.8,0.9v-3.1c0,0,0,0,0,0c0-1-4-1.9-8.8-1.9S45.1,25.7,45.1,26.8 M39.5,44.4l-27.8,11
	v0.6l27.8-7.2V44.4z M11.6,54.8l27.8-11.8v-5.2l-27.8,16V54.8z M39.5,50.3l-27.8,6.4v0.6l27.8-2.6V50.3z M32.3,34.4l-25,18.3h4.3
	l28-18.3h-1.2H32.3z M30.5,16.3c5.6-5.6,12.8-8.9,20.5-9.6V4.3C33.1,5.9,18.9,20.7,18.5,38.9h2.3C21,30.4,24.4,22.3,30.5,16.3
	 M57.4,18.8c-0.6-0.5-1.6-0.8-2.4-0.8V0.5V0h-0.5h-1.2h-0.5v0.5V18c-1.5,0.2-2.9,0.7-2.9,1.9v0.5h0.5h0.3c-1.6,0.1-3.3,0.4-4.1,1
	c-3.2,0.5-6.1,1.5-6.1,3.5v0.5H41h1.1h0.5V25c0,0,0,0,0,0c0.8-0.8,4.9-2,11.3-2c6.5,0,10.5,1.2,11.3,2c0,0,0,0,0,0v0.4h0.5h1.1h0.5
	v-0.5c0-0.5-0.2-1-0.7-1.4c-0.9-0.9-2.8-1.6-5.4-2c-0.6-0.5-2.3-0.9-4.2-1h0.2h0.5v-0.5C57.9,19.5,57.7,19.1,57.4,18.8 M79.3,65.1
	c6.7-6.7,10.4-15.7,10.4-25.2s-3.7-18.5-10.4-25.2c-6.1-6.1-14-9.7-22.5-10.3v2.3c7.9,0.6,15.2,4,20.9,9.7
	c6.3,6.3,9.8,14.7,9.8,23.6c0,18.4-15,33.4-33.4,33.4c-8.9,0-17.2-3.4-23.5-9.7h-3.1c0.5,0.5,1,1.1,1.5,1.6
	c6.7,6.7,15.7,10.4,25.2,10.4S72.6,71.8,79.3,65.1 M103.3,45.9h-2.4v15.9h2.4v-6.9h6.5v6.9h2.4V45.9h-2.4v6.8h-6.5V45.9z
	 M109.8,36.2h2.4V20.3h-2.4v6.8h-6.5v-6.8h-2.4v15.9h2.4v-6.9h6.5V36.2z M122,32.1c0,0.8-0.2,1.3-0.5,1.7c-0.6,0.6-1.3,0.6-2.1,0.6
	c-1.4,0-2.1-0.6-2.1-1.6c0-1,0.7-1.6,2-1.6h2.7V32.1z M122.1,36.2h2.2v-7.6c0-2.6-1.6-3.9-4.7-3.9c-1.9,0-3,0.4-4.1,1.6l1.5,1.4
	c0.6-0.8,1.2-1.1,2.5-1.1c1.8,0,2.5,0.7,2.5,2.1v0.8h-3c-2.6,0-3.9,1.4-3.9,3.3c0,1,0.3,1.8,0.9,2.4c0.7,0.7,1.6,1,3,1
	c1.4,0,2.2-0.3,3-1.2V36.2z M123,56.1c0,1.2-0.1,2.4-0.8,3.1c-0.4,0.4-1,0.7-1.7,0.7c-0.7,0-1.2-0.2-1.7-0.7
	c-0.7-0.7-0.8-1.9-0.8-3.1c0-1.2,0.1-2.4,0.8-3.1c0.4-0.4,1-0.6,1.7-0.6c0.7,0,1.2,0.2,1.7,0.6C122.9,53.7,123,54.9,123,56.1
	 M123.9,60.6c1.1-1.1,1.3-2.5,1.3-4.5c0-1.9-0.3-3.3-1.3-4.4c-0.7-0.8-1.9-1.3-3.4-1.3c-1.5,0-2.6,0.6-3.4,1.3
	c-1.1,1.1-1.3,2.5-1.3,4.4c0,1.9,0.3,3.4,1.3,4.5c0.7,0.8,1.8,1.3,3.4,1.3C122.1,61.9,123.2,61.3,123.9,60.6 M134.5,36.2h2.2V24.9
	h-2.3v6.9c0,1.7-1.1,2.5-2.3,2.5c-1.3,0-2.3-0.8-2.3-2.5v-6.9h-2.3v7.2c0,1.3,0.3,2.3,1.1,3.2c0.7,0.6,1.6,1,2.8,1
	c1.1,0,2.2-0.4,3-1.3V36.2z M131,58.9c-0.5-0.6-0.7-1.5-0.7-2.8c0-1.3,0.2-2.1,0.7-2.7c0.5-0.6,1.2-1,2.1-1c0.9,0,1.5,0.3,2.2,1.1
	l1.6-1.5c-1.1-1.1-2.2-1.6-3.7-1.6c-2.5,0-5,1.5-5,5.8s2.5,5.8,5,5.8c1.6,0,2.7-0.5,3.7-1.6l-1.6-1.5c-0.7,0.8-1.3,1.1-2.2,1.1
	C132.2,59.9,131.4,59.5,131,58.9 M143.6,36.2h1.4v-1.9H144c-0.8,0-1.2-0.5-1.2-1.3v-6.1h2.2v-1.7h-2.2v-3.4h-2.3v3.4h-1.3v1.7h1.3
	v6.2C140.5,34.7,141.5,36.2,143.6,36.2 M149.3,29.6c0-0.7,0.1-1,0.3-1.5c0.4-0.8,1.2-1.4,2.3-1.4c1.1,0,1.9,0.6,2.2,1.4
	c0.2,0.5,0.3,0.8,0.3,1.5H149.3z M149.3,31.2h7.3v-1c0-3.2-1.8-5.5-4.8-5.5c-2.9,0-4.8,2.1-4.8,5.8c0,4.3,2.3,5.8,5.1,5.8
	c2,0,3.1-0.6,4.2-1.8l-1.5-1.4c-0.8,0.8-1.5,1.2-2.8,1.2C150.3,34.4,149.3,33.2,149.3,31.2 M154.2,53.7c0-0.9,0.7-1.5,2.1-1.5
	c1.1,0,2.1,0.2,2.8,0.8l1.4-1.5c-1-0.9-2.5-1.3-4.2-1.3c-2.4,0-4.3,1.2-4.3,3.5c0,2,1.2,2.9,3.4,3.1l1.8,0.2
	c1.1,0.1,1.5,0.6,1.5,1.3c0,1.1-1.1,1.6-2.5,1.6c-1.1,0-2.3-0.2-3.3-1.2l-1.5,1.5c1.3,1.3,2.9,1.6,4.8,1.6c2.7,0,4.7-1.2,4.7-3.6
	c0-2-1.3-3-3.4-3.2l-1.8-0.2C154.6,54.9,154.2,54.4,154.2,53.7 M163.4,56.1c0,4.2,2.5,5.8,5,5.8c1.6,0,2.7-0.5,3.7-1.6l-1.6-1.5
	c-0.7,0.8-1.3,1.1-2.2,1.1c-0.9,0-1.6-0.4-2.1-1c-0.5-0.6-0.7-1.5-0.7-2.8c0-1.3,0.2-2.1,0.7-2.7c0.5-0.6,1.2-1,2.1-1
	c0.9,0,1.5,0.3,2.2,1.1l1.6-1.5c-1.1-1.1-2.2-1.6-3.7-1.6C165.9,50.3,163.4,51.9,163.4,56.1 M169.5,22.8l2.5-3.6h-2.5l-1.7,3.6
	H169.5z M166.3,29.6c0-0.7,0.1-1,0.3-1.5c0.4-0.9,1.2-1.4,2.3-1.4c1.1,0,1.9,0.6,2.2,1.4c0.2,0.5,0.3,0.8,0.3,1.5H166.3z
	 M166.3,31.2h7.4v-1c0-3.2-1.8-5.5-4.8-5.5c-2.9,0-4.8,2.1-4.8,5.8c0,4.3,2.3,5.8,5.1,5.8c2,0,3.1-0.6,4.2-1.8l-1.5-1.4
	c-0.8,0.8-1.5,1.2-2.7,1.2C167.4,34.4,166.3,33.2,166.3,31.2 M177.3,45.9h-2.3v15.9h2.3v-6.9c0-1.7,1-2.5,2.3-2.5
	c1.3,0,2.3,0.8,2.3,2.5v6.9h2.3v-7.3c0-2.5-1.4-4.2-3.9-4.2c-1.1,0-2.1,0.4-2.9,1.3V45.9z M178.9,33.3c-0.5-0.6-0.7-1.5-0.7-2.8
	c0-1.3,0.2-2.1,0.7-2.8c0.5-0.6,1.2-1,2.1-1c0.9,0,1.5,0.3,2.2,1.1l1.6-1.5c-1.1-1.1-2.2-1.6-3.7-1.6c-2.5,0-5,1.5-5,5.8
	c0,4.2,2.5,5.8,5,5.8c1.6,0,2.7-0.5,3.7-1.6l-1.6-1.5c-0.7,0.8-1.3,1.1-2.2,1.1C180.2,34.3,179.4,34,178.9,33.3 M193.5,30.5
	c0,1.2-0.1,2.4-0.8,3.1c-0.4,0.4-1,0.7-1.7,0.7c-0.7,0-1.2-0.2-1.7-0.7c-0.7-0.7-0.8-1.9-0.8-3.1c0-1.2,0.1-2.4,0.8-3.1
	c0.4-0.4,1-0.6,1.7-0.6c0.7,0,1.2,0.2,1.7,0.6C193.4,28.1,193.5,29.3,193.5,30.5 M194.4,35c1.1-1.1,1.3-2.5,1.3-4.5
	c0-1.9-0.3-3.3-1.3-4.4c-0.7-0.8-1.9-1.3-3.4-1.3c-1.5,0-2.6,0.6-3.4,1.3c-1.1,1.1-1.3,2.5-1.3,4.4c0,1.9,0.3,3.3,1.3,4.5
	c0.7,0.8,1.8,1.3,3.4,1.3C192.6,36.4,193.7,35.8,194.4,35 M194.8,61.8h2.2V50.5h-2.3v6.9c0,1.7-1.1,2.5-2.3,2.5
	c-1.3,0-2.3-0.8-2.3-2.5v-6.9h-2.3v7.2c0,1.3,0.3,2.3,1.1,3.2c0.7,0.6,1.6,1,2.8,1c1.1,0,2.2-0.4,3-1.3V61.8z M201.8,36.2h1.4v-1.9
	h-1c-0.9,0-1.2-0.4-1.2-1.3V20.3h-2.3v12.8C198.6,34.8,199.6,36.2,201.8,36.2 M205.3,59.8h-1c-0.9,0-1.2-0.4-1.2-1.3V45.9h-2.3v12.8
	c0,1.7,0.9,3.1,3.1,3.1h1.4V59.8z M206.6,29.6c0-0.7,0.1-1,0.3-1.5c0.4-0.8,1.2-1.4,2.3-1.4s1.9,0.6,2.2,1.4
	c0.2,0.5,0.3,0.8,0.3,1.5H206.6z M206.6,31.2h7.4v-1c0-3.2-1.8-5.5-4.8-5.5c-2.9,0-4.8,2.1-4.8,5.8c0,4.3,2.3,5.8,5.1,5.8
	c2,0,3.1-0.6,4.2-1.8l-1.5-1.4c-0.8,0.8-1.5,1.2-2.8,1.2C207.7,34.4,206.6,33.2,206.6,31.2 M209.2,55.2c0-0.7,0.1-1,0.3-1.5
	c0.4-0.9,1.2-1.4,2.3-1.4s1.9,0.6,2.2,1.4c0.2,0.5,0.3,0.8,0.3,1.5H209.2z M209.2,56.8h7.3v-1c0-3.2-1.8-5.5-4.8-5.5
	c-2.9,0-4.8,2.1-4.8,5.8c0,4.3,2.3,5.8,5.1,5.8c2,0,3.1-0.6,4.2-1.8l-1.5-1.4c-0.8,0.8-1.5,1.2-2.8,1.2
	C210.2,60,209.2,58.7,209.2,56.8 M228.5,30.5c0,2-0.3,3.8-2.3,3.8s-2.4-1.8-2.4-3.8c0-2,0.3-3.8,2.4-3.8S228.5,28.5,228.5,30.5
	 M228.6,36.2h2.2V20.3h-2.3V26c-0.8-1-1.8-1.3-3-1.3c-1.1,0-2.1,0.4-2.7,1c-1.1,1.1-1.3,3.1-1.3,4.8c0,1.7,0.1,3.7,1.3,4.8
	c0.6,0.6,1.6,1,2.8,1c1.2,0,2.1-0.3,3-1.3V36.2z M234.2,24.7l2.5-2v-2.3h-2.5V24.7z M236.3,45.9h-2.1v2.4h2.1V45.9z M237.7,59.9
	c-1.3,0-2.3-0.8-2.3-2.5v-6.9h-2.3v7.2c0,1.3,0.3,2.3,1.1,3.2c0.7,0.7,1.6,1,2.8,1c1.1,0,2.2-0.4,3-1.3v1.1h2.2V50.5H240v6.9
	C240,59.1,238.9,59.9,237.7,59.9 M240.1,36.2h2.3V24.9h-2.3V36.2z M241.1,45.9h-2.1v2.4h2.1V45.9z M240,22.7h2.4v-2.4H240V22.7z
	 M252.7,36.2h2.3V29c0-1.3-0.3-2.3-1.1-3.2c-0.7-0.6-1.6-1-2.8-1c-1.1,0-2.2,0.4-3,1.3v-1.1h-2.2v11.3h2.3v-6.9
	c0-1.7,1.1-2.5,2.3-2.5c1.3,0,2.3,0.8,2.3,2.5V36.2z M264.7,30.3c0,1.8-0.2,3.6-2.3,3.6c-2.1,0-2.3-1.8-2.3-3.6
	c0-1.8,0.3-3.6,2.3-3.6C264.5,26.8,264.7,28.6,264.7,30.3 M267,36.2V24.9h-2.2v1.2c-0.8-1-1.8-1.3-3-1.3c-1.1,0-2.1,0.4-2.7,1
	c-1.1,1.1-1.3,2.7-1.3,4.6c0,1.9,0.2,3.5,1.3,4.6c0.6,0.6,1.6,1,2.7,1c1.2,0,2.1-0.3,2.9-1.3v1.5c0,1.5-0.7,2.9-2.7,2.9
	c-1.1,0-1.7-0.3-2.5-1l-1.5,1.5c1.2,1.1,2.3,1.5,4,1.5C265.2,40.9,267,38.9,267,36.2 M275.3,22.8l2.5-3.6h-2.5l-1.7,3.6H275.3z
	 M272.2,29.6c0-0.7,0.1-1,0.3-1.5c0.4-0.9,1.2-1.4,2.3-1.4c1.1,0,1.9,0.6,2.2,1.4c0.2,0.5,0.3,0.8,0.3,1.5H272.2z M272.2,31.2h7.4
	v-1c0-3.2-1.8-5.5-4.8-5.5c-2.9,0-4.8,2.1-4.8,5.8c0,4.3,2.3,5.8,5.1,5.8c2,0,3.1-0.6,4.2-1.8l-1.5-1.4c-0.8,0.8-1.5,1.2-2.7,1.2
	C273.2,34.4,272.2,33.2,272.2,31.2 M274.3,55.2c0-0.7,0.1-1,0.3-1.5c0.4-0.9,1.2-1.4,2.3-1.4c1.1,0,1.9,0.6,2.2,1.4
	c0.2,0.5,0.3,0.8,0.3,1.5H274.3z M274.3,56.8h7.3v-1c0-3.2-1.8-5.5-4.8-5.5c-2.9,0-4.8,2.1-4.8,5.8c0,4.3,2.3,5.8,5.1,5.8
	c2,0,3.1-0.6,4.2-1.8l-1.5-1.4c-0.8,0.8-1.5,1.2-2.8,1.2C275.4,60,274.3,58.7,274.3,56.8 M289.3,36.2h2.3V29c0-1.3-0.3-2.3-1.1-3.2
	c-0.7-0.6-1.6-1-2.8-1c-1.1,0-2.2,0.4-3,1.3v-1.1h-2.2v11.3h2.3v-6.9c0-1.7,1.1-2.5,2.3-2.5s2.3,0.8,2.3,2.5V36.2z M287.3,58.9
	c-0.5-0.6-0.7-1.5-0.7-2.8c0-1.3,0.2-2.1,0.7-2.7c0.5-0.6,1.2-1,2.1-1c0.9,0,1.5,0.3,2.2,1.1l1.6-1.5c-1.1-1.1-2.2-1.6-3.7-1.6
	c-2.5,0-5,1.5-5,5.8s2.5,5.8,5,5.8c1.6,0,2.7-0.5,3.7-1.6l-1.6-1.5c-0.7,0.8-1.3,1.1-2.2,1.1C288.5,59.9,287.8,59.5,287.3,58.9
	 M294.9,22.7h2.4v-2.4h-2.4V22.7z M301.2,50.3c-1.1,0-2.1,0.4-2.9,1.3v-5.7H296v15.9h2.3v-6.9c0-1.7,1-2.5,2.3-2.5s2.3,0.8,2.3,2.5
	v6.9h2.3v-7.3C305.2,52,303.8,50.3,301.2,50.3 M302.3,29.6c0-0.7,0.1-1,0.3-1.5c0.4-0.8,1.2-1.4,2.3-1.4c1.1,0,1.9,0.6,2.2,1.4
	c0.2,0.5,0.3,0.8,0.3,1.5H302.3z M302.3,31.2h7.3v-1c0-3.2-1.8-5.5-4.8-5.5c-2.9,0-4.8,2.1-4.8,5.8c0,4.3,2.3,5.8,5.1,5.8
	c2,0,3.1-0.6,4.2-1.8l-1.5-1.4c-0.8,0.8-1.5,1.2-2.7,1.2C303.4,34.4,302.3,33.2,302.3,31.2 M314.2,50.3c-1.1,0-2.2,0.4-3,1.3v-1.1
	h-2.2v11.3h2.3v-6.9c0-1.7,1.1-2.5,2.3-2.5c1.3,0,2.3,0.8,2.3,2.5v6.9h2.3v-7.2c0-1.3-0.3-2.3-1.1-3.2
	C316.3,50.7,315.3,50.3,314.2,50.3 M318.8,27.6l1.7-1.7c-0.8-0.8-1.6-1.1-2.7-1.1c-1.3,0-2.4,0.6-3,1.4v-1.2h-2.2v11.3h2.3v-6.9
	c0-1.6,1-2.5,2.3-2.5C317.9,26.8,318.3,27,318.8,27.6 M324.2,45.8h-2.4v2.4h2.4V45.8z M322.2,36.2h2.3V24.9h-2.3V36.2z M322.2,22.7
	h2.4v-2.4h-2.4V22.7z M329.6,29.6c0-0.7,0.1-1,0.3-1.5c0.4-0.8,1.2-1.4,2.3-1.4c1.1,0,1.9,0.6,2.2,1.4c0.2,0.5,0.3,0.8,0.3,1.5
	H329.6z M329.6,31.2h7.3v-1c0-3.2-1.8-5.5-4.8-5.5c-2.9,0-4.8,2.1-4.8,5.8c0,4.3,2.3,5.8,5.1,5.8c2,0,3.1-0.6,4.2-1.8l-1.5-1.4
	c-0.8,0.8-1.5,1.2-2.7,1.2C330.7,34.4,329.6,33.2,329.6,31.2 M338,61.8l-4.4-6.9l3.9-4.4h-2.8l-4.4,5.2v-9.8H328v15.9h2.3v-3.3
	l1.7-1.9l3.2,5.2H338z M346.7,29.6c0-0.7,0.1-1,0.3-1.5c0.4-0.8,1.2-1.4,2.3-1.4c1.1,0,1.9,0.6,2.2,1.4c0.2,0.5,0.3,0.8,0.3,1.5
	H346.7z M346.7,31.2h7.3v-1c0-3.2-1.8-5.5-4.8-5.5c-2.9,0-4.8,2.1-4.8,5.8c0,4.3,2.3,5.8,5.1,5.8c2,0,3.1-0.6,4.2-1.8l-1.5-1.4
	c-0.8,0.8-1.5,1.2-2.8,1.2C347.8,34.4,346.7,33.2,346.7,31.2 M353,61.8h2.2V50.5h-2.3v6.9c0,1.7-1.1,2.5-2.3,2.5
	c-1.3,0-2.3-0.8-2.3-2.5v-6.9H346v7.2c0,1.3,0.3,2.3,1.1,3.2c0.7,0.6,1.6,1,2.8,1c1.1,0,2.2-0.4,3-1.3V61.8z M360.3,36.2h1.4v-1.9
	h-0.9c-0.9,0-1.3-0.5-1.3-1.3v-6.1h2.2v-1.7h-2.2v-3.4h-2.3v3.4h-1.3v1.7h1.3v6.2C357.2,34.7,358.2,36.2,360.3,36.2 M366,61.8h2.3
	v-7.2c0-1.3-0.3-2.3-1.1-3.2c-0.7-0.7-1.6-1-2.8-1c-1.1,0-2.2,0.4-3,1.3v-1.1h-2.2v11.3h2.3v-6.9c0-1.7,1.1-2.5,2.3-2.5
	c1.3,0,2.3,0.8,2.3,2.5V61.8z M376.1,30.5c0,2-0.3,3.8-2.3,3.8c-2.1,0-2.4-1.8-2.4-3.8c0-2,0.3-3.8,2.4-3.8
	C375.8,26.8,376.1,28.5,376.1,30.5 M376.2,36.2h2.2V20.3h-2.3V26c-0.8-1-1.8-1.3-3-1.3c-1.1,0-2.1,0.4-2.8,1
	c-1.1,1.1-1.3,3.1-1.3,4.8c0,1.7,0.1,3.7,1.3,4.8c0.6,0.6,1.6,1,2.8,1c1.2,0,2.1-0.3,3-1.3V36.2z M378.5,56.1c0,2-0.3,3.8-2.3,3.8
	c-2.1,0-2.4-1.8-2.4-3.8c0-2,0.3-3.8,2.4-3.8C378.2,52.4,378.5,54.1,378.5,56.1 M378.5,61.8h2.2V45.9h-2.3v5.7c-0.8-1-1.8-1.3-3-1.3
	c-1.1,0-2.1,0.4-2.8,1c-1.1,1.1-1.3,3.1-1.3,4.8c0,1.7,0.1,3.7,1.3,4.8c0.6,0.6,1.6,1,2.8,1c1.2,0,2.1-0.3,3-1.3V61.8z M381.8,24.7
	l2.5-2v-2.3h-2.5V24.7z M393.7,32.1c0,0.8-0.2,1.3-0.5,1.7c-0.6,0.6-1.3,0.6-2.1,0.6c-1.4,0-2.1-0.6-2.1-1.6c0-1,0.7-1.6,2-1.6h2.7
	V32.1z M393.8,36.2h2.2v-7.6c0-2.6-1.6-3.9-4.7-3.9c-1.9,0-3,0.4-4.1,1.6l1.5,1.4c0.6-0.8,1.2-1.1,2.5-1.1c1.8,0,2.5,0.7,2.5,2.1
	v0.8h-3c-2.6,0-3.9,1.4-3.9,3.3c0,1,0.3,1.8,0.9,2.4c0.7,0.7,1.6,1,3,1s2.2-0.3,3-1.2V36.2z M397.9,56.5H393l2.5-7.1L397.9,56.5z
	 M402.2,61.8l-5.8-15.9h-1.9l-5.8,15.9h2.6l1.1-3.2h6.3l1.1,3.2H402.2z M405.6,27.6l1.7-1.7c-0.8-0.8-1.6-1.1-2.7-1.1
	c-1.3,0-2.4,0.6-3,1.4v-1.2h-2.2v11.3h2.3v-6.9c0-1.6,1-2.5,2.3-2.5C404.7,26.8,405.1,27,405.6,27.6 M410.7,33.3
	c-0.5-0.6-0.7-1.5-0.7-2.8c0-1.3,0.2-2.1,0.7-2.8c0.5-0.6,1.2-1,2.1-1c0.9,0,1.5,0.3,2.2,1.1l1.6-1.5c-1.1-1.1-2.2-1.6-3.7-1.6
	c-2.5,0-5.1,1.5-5.1,5.8c0,4.2,2.5,5.8,5.1,5.8c1.6,0,2.7-0.5,3.7-1.6l-1.6-1.5c-0.7,0.8-1.3,1.1-2.2,1.1
	C411.9,34.3,411.2,34,410.7,33.3 M422,51.9c-1.1-1.1-2.2-1.6-3.7-1.6c-2.5,0-5,1.5-5,5.8s2.5,5.8,5,5.8c1.6,0,2.7-0.5,3.7-1.6
	l-1.6-1.5c-0.7,0.8-1.3,1.1-2.2,1.1c-0.9,0-1.6-0.4-2.1-1c-0.5-0.6-0.7-1.5-0.7-2.8c0-1.3,0.2-2.1,0.7-2.7c0.5-0.6,1.2-1,2.1-1
	c0.9,0,1.5,0.3,2.2,1.1L422,51.9z M425.9,36.2h2.3v-7.3c0-2.5-1.4-4.2-3.9-4.2c-1.1,0-2.1,0.4-2.9,1.3v-5.7H419v15.9h2.3v-6.9
	c0-1.7,1-2.5,2.3-2.5c1.3,0,2.3,0.8,2.3,2.5V36.2z M431.4,22.7h2.4v-2.4h-2.4V22.7z M433.8,24.9h-2.3v11.3h2.3V24.9z M431.7,61.8
	h2.3v-7.3c0-2.5-1.4-4.2-3.9-4.2c-1.1,0-2.1,0.4-2.9,1.3v-5.7h-2.3v15.9h2.3v-6.9c0-1.7,1-2.5,2.3-2.5c1.3,0,2.3,0.8,2.3,2.5V61.8z
	 M440.6,36.2h1.4v-1.9H441c-0.9,0-1.3-0.5-1.3-1.3v-6.1h2.2v-1.7h-2.2v-3.4h-2.3v3.4h-1.3v1.7h1.3v6.2
	C437.5,34.7,438.5,36.2,440.6,36.2 M444.2,50.7h-1.3v1.7h1.3v6.2c0,1.6,1,3.1,3.1,3.1h1.4v-1.9h-0.9c-0.9,0-1.3-0.5-1.3-1.3v-6.1
	h2.2v-1.7h-2.2v-3.4h-2.3V50.7z M446.3,29.6c0-0.7,0.1-1,0.3-1.5c0.4-0.8,1.2-1.4,2.3-1.4c1.1,0,1.9,0.6,2.2,1.4
	c0.2,0.5,0.3,0.8,0.3,1.5H446.3z M446.3,31.2h7.3v-1c0-3.2-1.8-5.5-4.8-5.5c-2.9,0-4.8,2.1-4.8,5.8c0,4.3,2.3,5.8,5.1,5.8
	c2,0,3.1-0.6,4.2-1.8l-1.5-1.4c-0.8,0.8-1.5,1.2-2.8,1.2C447.3,34.4,446.3,33.2,446.3,31.2 M458.5,55.2h-5.1c0-0.7,0.1-1,0.3-1.5
	c0.4-0.9,1.2-1.4,2.3-1.4c1.1,0,1.9,0.6,2.2,1.4C458.4,54.2,458.4,54.5,458.5,55.2 M455.9,50.3c-2.9,0-4.8,2.1-4.8,5.8
	c0,4.3,2.3,5.8,5.1,5.8c2,0,3.1-0.6,4.2-1.8l-1.5-1.4c-0.8,0.8-1.5,1.2-2.8,1.2c-1.9,0-2.9-1.2-2.9-3.2h7.4v-1
	C460.7,52.6,459,50.3,455.9,50.3 M458.9,33.3c-0.5-0.6-0.7-1.5-0.7-2.8c0-1.3,0.2-2.1,0.7-2.8c0.5-0.6,1.2-1,2.1-1
	c0.9,0,1.5,0.3,2.2,1.1l1.6-1.5c-1.1-1.1-2.2-1.6-3.7-1.6c-2.5,0-5,1.5-5,5.8c0,4.2,2.5,5.8,5,5.8c1.6,0,2.7-0.5,3.7-1.6l-1.6-1.5
	c-0.7,0.8-1.3,1.1-2.2,1.1C460.1,34.3,459.4,34,458.9,33.3 M470.6,36.2h1.4v-1.9H471c-0.9,0-1.3-0.5-1.3-1.3v-6.1h2.2v-1.7h-2.2
	v-3.4h-2.3v3.4h-1.3v1.7h1.3v6.2C467.5,34.7,468.4,36.2,470.6,36.2 M473.9,61.8l-4.4-6.9l3.9-4.4h-2.8l-4.4,5.2v-9.8H464v15.9h2.3
	v-3.3l1.7-1.9l3.2,5.2H473.9z M481.5,36.2h2.2V24.9h-2.3v6.9c0,1.7-1.1,2.5-2.3,2.5c-1.3,0-2.3-0.8-2.3-2.5v-6.9h-2.3v7.2
	c0,1.3,0.3,2.3,1.1,3.2c0.7,0.6,1.6,1,2.8,1c1.1,0,2.2-0.4,3-1.3V36.2z M488.8,59.9c-1.3,0-2.3-0.8-2.3-2.5v-6.9h-2.3v7.2
	c0,1.3,0.3,2.3,1.1,3.2c0.7,0.6,1.6,1,2.8,1c1.1,0,2.2-0.4,3-1.3v1.1h2.2V50.5h-2.3v6.9C491.2,59.1,490.1,59.9,488.8,59.9
	 M493.5,27.6l1.7-1.7c-0.8-0.8-1.6-1.1-2.7-1.1c-1.3,0-2.4,0.6-3,1.4v-1.2h-2.2v11.3h2.3v-6.9c0-1.6,1-2.5,2.3-2.5
	C492.6,26.8,493,27,493.5,27.6 M497.9,29.6c0-0.7,0.1-1,0.3-1.5c0.4-0.8,1.2-1.4,2.3-1.4c1.1,0,1.9,0.6,2.2,1.4
	c0.2,0.5,0.3,0.8,0.3,1.5H497.9z M497.9,31.2h7.3v-1c0-3.2-1.8-5.5-4.8-5.5c-2.9,0-4.8,2.1-4.8,5.8c0,4.3,2.3,5.8,5.1,5.8
	c2,0,3.1-0.6,4.2-1.8l-1.5-1.4c-0.8,0.8-1.5,1.2-2.8,1.2C498.9,34.4,497.9,33.2,497.9,31.2 M503.5,53.1l1.7-1.7
	c-0.8-0.8-1.6-1.1-2.7-1.1c-1.3,0-2.4,0.6-3,1.4v-1.2h-2.2v11.3h2.3v-6.9c0-1.6,1-2.5,2.3-2.5C502.6,52.4,503,52.6,503.5,53.1
	 M516,22.5h7.8v-2.2h-10.2v15.9h2.4v-6.7h6.6v-2.2H516V22.5z M516,48.1h7.8v-2.2h-10.2v15.9h2.4v-6.7h6.6v-2.2H516V48.1z
	 M531.8,27.6l1.7-1.7c-0.8-0.8-1.6-1.1-2.7-1.1c-1.3,0-2.4,0.6-3,1.4v-1.2h-2.2v11.3h2.3v-6.9c0-1.6,1-2.5,2.3-2.5
	C530.9,26.8,531.3,27,531.8,27.6 M531.9,53.1l1.7-1.7c-0.8-0.8-1.6-1.1-2.7-1.1c-1.3,0-2.4,0.6-3,1.4v-1.2h-2.2v11.3h2.3v-6.9
	c0-1.6,1-2.5,2.3-2.5C531,52.4,531.4,52.6,531.9,53.1 M535.2,22.7h2.4v-2.4h-2.4V22.7z M537.5,24.9h-2.3v11.3h2.3V24.9z M541.5,55.2
	h-5.1c0-0.7,0.1-1,0.3-1.5c0.4-0.9,1.2-1.4,2.3-1.4c1.1,0,1.9,0.6,2.2,1.4C541.4,54.2,541.5,54.5,541.5,55.2 M539,50.3
	c-2.9,0-4.8,2.1-4.8,5.8c0,4.3,2.3,5.8,5.1,5.8c2,0,3.1-0.6,4.2-1.8l-1.5-1.4c-0.8,0.8-1.5,1.2-2.8,1.2c-1.9,0-2.9-1.2-2.9-3.2h7.3
	v-1C543.8,52.6,542,50.3,539,50.3 M548,30.5c0,2-0.3,3.8-2.3,3.8c-2.1,0-2.4-1.8-2.4-3.8c0-2,0.3-3.8,2.4-3.8
	C547.7,26.8,548,28.5,548,30.5 M549,35.3c1.1-1.1,1.3-3.1,1.3-4.8c0-1.7-0.1-3.6-1.3-4.8c-0.6-0.6-1.6-1-2.8-1c-1.2,0-2.1,0.3-3,1.3
	v-5.7H541v15.9h2.2V35c0.9,1,1.8,1.3,3,1.3C547.4,36.4,548.4,36,549,35.3 M554.9,56.1c0-2,0.3-3.8,2.4-3.8c2.1,0,2.3,1.7,2.3,3.8
	c0,2-0.3,3.8-2.3,3.8C555.2,59.9,554.9,58.1,554.9,56.1 M554.9,45.9h-2.3v15.9h2.2v-1.2c0.8,1,1.8,1.3,3,1.3c1.1,0,2.1-0.4,2.8-1
	c1.1-1.1,1.3-3.1,1.3-4.8c0-1.7-0.1-3.6-1.3-4.8c-0.6-0.6-1.6-1-2.7-1c-1.2,0-2.1,0.3-3,1.3V45.9z M559.9,30.5
	c0,1.2-0.1,2.4-0.8,3.1c-0.4,0.4-1,0.7-1.7,0.7c-0.7,0-1.2-0.2-1.7-0.7c-0.7-0.7-0.8-1.9-0.8-3.1c0-1.2,0.1-2.4,0.8-3.1
	c0.4-0.4,1-0.6,1.7-0.6c0.7,0,1.2,0.2,1.7,0.6C559.8,28.1,559.9,29.3,559.9,30.5 M560.9,35c1.1-1.1,1.3-2.5,1.3-4.5
	c0-1.9-0.3-3.3-1.3-4.4c-0.7-0.8-1.9-1.3-3.4-1.3c-1.5,0-2.6,0.6-3.4,1.3c-1.1,1.1-1.3,2.5-1.3,4.4c0,1.9,0.3,3.3,1.3,4.5
	c0.7,0.8,1.8,1.3,3.4,1.3C559,36.4,560.1,35.8,560.9,35 M567.1,50.5h-2.3v7.2c0,1.3,0.3,2.3,1.1,3.2c0.7,0.6,1.6,1,2.8,1
	c1.1,0,2.2-0.4,3-1.3v1.1h2.2V50.5h-2.3v6.9c0,1.7-1.1,2.5-2.3,2.5c-1.3,0-2.3-0.8-2.3-2.5V50.5z M572,36.2h2.2V24.9h-2.3v6.9
	c0,1.7-1.1,2.5-2.3,2.5c-1.3,0-2.3-0.8-2.3-2.5v-6.9H565v7.2c0,1.3,0.3,2.3,1.1,3.2c0.7,0.6,1.6,1,2.8,1c1.1,0,2.2-0.4,3-1.3V36.2z
	 M579.8,50.5h-2.2v11.3h2.3v-6.9c0-1.6,1-2.5,2.3-2.5c0.8,0,1.2,0.2,1.7,0.8l1.7-1.7c-0.8-0.8-1.6-1.1-2.7-1.1c-1.3,0-2.4,0.6-3,1.4
	V50.5z M583.9,27.6l1.7-1.7c-0.8-0.8-1.6-1.1-2.7-1.1c-1.3,0-2.4,0.6-3,1.4v-1.2h-2.2v11.3h2.3v-6.9c0-1.6,1-2.5,2.3-2.5
	C583,26.8,583.4,27,583.9,27.6 M593,30.3c0,1.8-0.2,3.6-2.3,3.6c-2.1,0-2.3-1.8-2.3-3.6c0-1.8,0.3-3.6,2.3-3.6
	C592.7,26.8,593,28.6,593,30.3 M595.3,36.2V24.9h-2.2v1.2c-0.8-1-1.8-1.3-3-1.3c-1.1,0-2.1,0.4-2.7,1c-1.1,1.1-1.3,2.7-1.3,4.6
	c0,1.9,0.2,3.5,1.3,4.6c0.6,0.6,1.6,1,2.7,1c1.2,0,2.1-0.3,2.9-1.3v1.5c0,1.5-0.7,2.9-2.7,2.9c-1.1,0-1.7-0.3-2.5-1l-1.5,1.5
	c1.2,1.1,2.3,1.5,4,1.5C593.4,40.9,595.3,38.9,595.3,36.2 M593,55.9c0,1.8-0.2,3.6-2.3,3.6c-2.1,0-2.3-1.8-2.3-3.6
	c0-1.8,0.3-3.6,2.3-3.6C592.8,52.4,593,54.1,593,55.9 M595.3,61.7V50.5h-2.2v1.2c-0.8-1-1.8-1.3-3-1.3c-1.1,0-2.1,0.4-2.7,1
	c-1.1,1.1-1.3,2.7-1.3,4.6c0,1.9,0.2,3.5,1.3,4.6c0.6,0.6,1.6,1,2.7,1c1.2,0,2.1-0.3,2.9-1.3v1.5c0,1.5-0.7,2.9-2.7,2.9
	c-1.1,0-1.7-0.3-2.5-1l-1.5,1.5c1.2,1.1,2.3,1.5,4,1.5C593.4,66.5,595.3,64.5,595.3,61.7"/>
</svg>
