<?xml version="1.0" encoding="utf-8"?>
<svg xmlns="http://www.w3.org/2000/svg" viewBox="0 0 404.11 69.84">
    <defs>
        <style>
            .a{fill:#878787;}
        </style>
    </defs>
    <g>
        <path class="a" d="M34.38,46.29c.06,3-.68,5.35-2.2,6.91s-3.89,2.35-7,2.35c-6.18,0-9.31-3.16-9.31-9.39l0-8.67H.05l0,8.66c0,15.5,8.71,23.69,25.19,23.69s25.19-8.19,25.19-23.69V.23h-16Z"/>
        <path class="a" d="M197.72.23H166.46L146.71,68.67h16l5.37-18.61h28l5.37,18.61h16Zm-26,37.37L182.09,1.53,192.5,37.6Z"/>
        <polygon class="a" points="126.71 0.23 110.7 0.23 99.51 67.47 90.19 0.23 74.18 0.23 74.18 0.23 58.38 0.23 58.38 68.67 74.39 68.67 74.39 1.7 83.67 68.67 99.31 68.67 99.68 68.67 115.31 68.67 126.6 0.87 126.6 68.67 142.6 68.67 142.6 0.23 126.71 0.23 126.71 0.23"/>
        <path class="a" d="M246.33,5.57c-4.62,0-7.4,3.91-7.4,8s2.78,8,7.4,8,7.39-3.91,7.39-8-2.77-8-7.39-8m0,14c-3,0-4.62-2.56-4.62-6s1.66-6,4.62-6,4.62,2.56,4.62,6-1.67,6-4.62,6"/>
        <rect class="a" x="255.23" y="5.88" width="2.56" height="15.4"/>
        <rect class="a" x="255.02" y="0.03" width="2.99" height="2.99"/>
        <path class="a" d="M262.81,11.48c0-2.18,1.05-3.78,3.57-3.78s3.55,1.47,3.55,4v9.55h2.55V10.84c0-2.9-1.75-5.27-5.05-5.27a4.69,4.69,0,0,0-4.65,3.33h-.06v-3h-2.47v15.4h2.56Z"/>
        <path class="a" d="M276.37,17.83c0,2.22,1,3.45,3.57,3.45h2.77v-2h-2.06c-1.29,0-1.72-.5-1.72-1.7V7.91h3.91v-2h-3.91V2.37h-2.56V5.88h-2.81v2h2.81Z"/>
        <polygon class="a" points="301.66 21.16 296.15 0.03 290.82 0.03 290.82 21.28 293.47 21.28 293.47 0.15 298.92 21.28 304.4 21.28 309.85 0.15 309.85 21.28 312.5 21.28 312.5 0.03 307.18 0.03 301.66 21.16"/>
        <path class="a" d="M320.46,12.29c-3.27.34-6,1.35-6,4.52,0,3,2.4,4.78,5.36,4.78a5,5,0,0,0,5-3.33h.06v3h2.47V11.92c0-4.65-2.81-6.35-6.23-6.35-3.91,0-6,2.34-6.16,5.18h2.56c.09-1.82,1.26-3.15,3.6-3.15s3.67,1.42,3.67,3.73v.49Zm4.31,2.31c0,3.32-1.66,5-4.37,5-1.82,0-3.21-1.08-3.21-2.62s1.17-2.47,3.48-2.71l4.1-.46Z"/>
        <path class="a" d="M335.74,19.56a3.88,3.88,0,0,1-4.07-3.67h-2.55a6.18,6.18,0,0,0,6.53,5.7c4,0,6.16-1.85,6.16-4.5,0-2.49-1.48-4-4.44-4.68L335.31,12c-2.31-.53-3.24-1-3.24-2.22,0-1.42,1.45-2.13,3.24-2.13,2.15,0,3.42,1.05,3.63,2.84h2.56c-.22-2.84-2.68-4.87-6.19-4.87-3.3,0-5.73,1.85-5.73,4.41s1.78,3.75,4.74,4.4l2.06.46c2.35.53,3,1.39,3,2.41,0,1.44-1.63,2.31-3.6,2.31"/>
        <path class="a" d="M344.71,17.83c0,2.22,1,3.45,3.57,3.45h2.77v-2H349c-1.3,0-1.73-.5-1.73-1.7V7.91h3.91v-2h-3.91V2.37h-2.55V5.88H341.9v2h2.81Z"/>
        <path class="a" d="M358,21.59c4.22,0,6.07-2.43,6.63-5.18h-2.56a3.72,3.72,0,0,1-3.82,3.15c-2.83,0-4.68-2-4.8-5.21h11.36c.43-5.18-2.34-8.78-6.93-8.78s-7,3.73-7,8,2.56,8,7.14,8m-.12-14c2.71,0,4.19,1.94,4.41,4.72h-8.84c.24-2.78,1.72-4.72,4.43-4.72"/>
        <path class="a" d="M369,12c0-2.77,1.57-3.7,4.07-3.7h.55V5.57a4.69,4.69,0,0,0-4.65,3.33h-.06v-3H366.4v15.4H369Z"/>
        <path class="a" d="M232.94,34c-4.62,0-7.39,3.91-7.39,8s2.77,8,7.39,8,7.4-3.92,7.4-8-2.78-8-7.4-8m0,14c-2.95,0-4.62-2.55-4.62-6s1.67-6,4.62-6,4.62,2.56,4.62,6-1.66,6-4.62,6"/>
        <path class="a" d="M245.82,32.2c0-1.2.43-1.69,1.73-1.69h2.06v-2h-2.77c-2.59,0-3.57,1.24-3.57,3.46v2.4h-2.81v2h2.81V49.73h2.55V36.36h3.91v-2h-3.91Z"/>
        <path class="a" d="M261.29,28.47l-7.18,21.26h2.81l2.15-6.41H269l2.16,6.41H274l-7.18-21.26ZM259.81,41.1,264,28.6l4.22,12.5Z"/>
        <path class="a" d="M282.79,34a4.7,4.7,0,0,0-4.65,3.32h-.06v-3h-2.46v15.4h2.55V40.49c0-2.78,1.58-3.7,4.07-3.7h.55Z"/>
        <path class="a" d="M290.22,48c-3,0-4.68-2.61-4.68-6s1.57-6,4.49-6a3.74,3.74,0,0,1,4,3.42h2.56c-.68-3.54-3-5.45-6.75-5.45-4.34,0-7.12,3.91-7.12,8,0,4.28,2.81,8,7.24,8,3.73,0,6.1-2,6.78-5.52h-2.56a3.78,3.78,0,0,1-4,3.48"/>
        <path class="a" d="M305.81,34a4.69,4.69,0,0,0-4.65,3.32h-.06V28.47h-2.47V49.73h2.56v-9.8c0-2.18,1.05-3.79,3.57-3.79s3.54,1.48,3.54,4v9.55h2.56V39.29c0-2.9-1.76-5.27-5.05-5.27"/>
        <rect class="a" x="313.57" y="28.47" width="2.99" height="2.99"/>
        <rect class="a" x="313.79" y="34.33" width="2.56" height="15.4"/>
        <path class="a" d="M323.71,30.82h-2.56v3.51h-2.8v2h2.8v9.92c0,2.22,1,3.45,3.58,3.45h2.77v-2h-2.06c-1.3,0-1.73-.5-1.73-1.7V36.36h3.91v-2h-3.91Z"/>
        <path class="a" d="M335,34c-4.59,0-7,3.73-7,8s2.56,8,7.15,8c4.22,0,6.07-2.44,6.62-5.18h-2.55A3.73,3.73,0,0,1,335.36,48c-2.84,0-4.69-2-4.81-5.2h11.37c.43-5.18-2.35-8.78-6.93-8.78m-4.44,6.74c.25-2.77,1.73-4.71,4.44-4.71s4.19,1.94,4.4,4.71Z"/>
        <path class="a" d="M350.61,48c-3,0-4.69-2.61-4.69-6s1.58-6,4.5-6a3.74,3.74,0,0,1,4,3.42H357c-.67-3.54-3-5.45-6.74-5.45-4.35,0-7.12,3.91-7.12,8,0,4.28,2.81,8,7.24,8,3.73,0,6.1-2,6.78-5.52h-2.56a3.78,3.78,0,0,1-4,3.48"/>
        <path class="a" d="M362.53,30.82H360v3.51h-2.81v2H360v9.92c0,2.22,1,3.45,3.57,3.45h2.77v-2h-2.06c-1.3,0-1.73-.5-1.73-1.7V36.36h3.91v-2h-3.91Z"/>
        <path class="a" d="M377.32,44.12c0,2.19-.9,3.79-3.48,3.79s-3.48-1.48-3.48-4V34.33H367.8V44.77c0,2.89,1.76,5.27,5.14,5.27,2.19,0,3.61-1.21,4.41-3.33h.06v3h2.47V34.33h-2.56Z"/>
        <path class="a" d="M390.14,34a4.69,4.69,0,0,0-4.65,3.32h-.07v-3H383v15.4h2.56V40.49c0-2.78,1.57-3.7,4.06-3.7h.56Z"/>
        <path class="a" d="M397.13,34c-4.59,0-7,3.73-7,8s2.56,8,7.14,8c4.22,0,6.07-2.44,6.63-5.18h-2.56A3.72,3.72,0,0,1,397.5,48c-2.83,0-4.68-2-4.8-5.2h11.36c.43-5.18-2.34-8.78-6.93-8.78m-4.43,6.74c.24-2.77,1.72-4.71,4.43-4.71s4.19,1.94,4.41,4.71Z"/>
        <path class="a" d="M230.89,21.6c4.11,0,6.16-2.38,6.16-5.72V0h-2.68V15.7c0,2.64-1.25,3.73-3.39,3.73-2.51,0-3.7-1.12-3.7-4.84V14.2h-2.65v.48c0,4.87,2.41,6.92,6.26,6.92"/>
    </g>
</svg>
