<?xml version="1.0" encoding="utf-8"?>
<svg xmlns="http://www.w3.org/2000/svg" viewBox="0 0 217.4 69.61">
    <defs>
        <style>
            .a{fill:#878787;}
        </style>
    </defs>
    <g>
        <path class="a" d="M34.33,46.06c.06,3-.68,5.35-2.2,6.91s-3.89,2.35-7,2.35c-6.18,0-9.31-3.16-9.31-9.39V37.26H0v8.66c0,15.5,8.71,23.69,25.19,23.69s25.19-8.19,25.19-23.69V0h-16Z"/>
        <path class="a" d="M197.67,0H166.41L146.66,68.44h16L168,49.83h28l5.37,18.61h16Zm-26,37.37L182,1.3l10.41,36.07Z"/>
        <polygon class="a" points="126.66 0 110.65 0 99.46 67.24 90.14 0 74.13 0 74.13 0 58.33 0 58.33 68.44 74.34 68.44 74.34 1.47 83.62 68.44 99.26 68.44 99.63 68.44 115.26 68.44 126.55 0.64 126.55 68.44 142.55 68.44 142.55 0 126.66 0 126.66 0"/>
    </g>
</svg>
