<?xml version="1.0" standalone="no"?>
<!DOCTYPE svg PUBLIC "-//W3C//DTD SVG 20010904//EN"
 "http://www.w3.org/TR/2001/REC-SVG-20010904/DTD/svg10.dtd">
<svg version="1.0" xmlns="http://www.w3.org/2000/svg"
 width="700.000000pt" height="700.000000pt" viewBox="0 0 700.000000 700.000000"
 preserveAspectRatio="xMidYMid meet">
<metadata>
Created by potrace 1.11, written by Peter Selinger 2001-2013
</metadata>
<g transform="translate(0.000000,700.000000) scale(0.100000,-0.100000)"
fill="#000000" stroke="none">
<path d="M4124 6451 c-2 -2 -4 -318 -4 -702 l0 -697 -52 -13 c-75 -17 -110
-34 -141 -65 -27 -26 -29 -34 -30 -86 0 -25 -5 -27 -64 -38 -63 -11 -168 -45
-188 -60 -5 -5 -30 -11 -55 -15 -131 -18 -298 -80 -361 -132 -39 -33 -69 -93
-69 -138 l0 -36 83 3 c57 2 81 7 80 15 -3 15 39 45 96 67 52 20 224 61 296 71
28 3 64 8 80 10 206 26 664 26 826 0 13 -2 42 -6 64 -9 210 -29 405 -95 405
-137 0 -17 8 -19 80 -19 l80 0 0 34 c0 90 -51 136 -235 217 -26 12 -185 49
-208 49 -10 0 -43 11 -74 25 -58 27 -161 55 -204 55 -24 0 -25 3 -25 56 1 49
-3 59 -26 79 -31 27 -127 65 -163 65 l-25 0 0 563 c0 309 0 625 0 702 l0 140
-81 0 c-44 0 -83 -2 -85 -4z"/>
<path d="M3855 6104 c-159 -23 -199 -31 -334 -66 -359 -92 -757 -293 -1046
-528 -97 -78 -311 -290 -388 -383 -385 -464 -605 -1031 -641 -1654 -4 -60 -2
-61 109 -53 l70 5 1 40 c3 101 23 287 39 359 3 12 7 32 9 46 16 94 73 290 122
417 305 793 1010 1403 1836 1587 101 23 297 55 336 56 9 0 12 26 12 95 0 109
15 99 -125 79z"/>
<path d="M4431 6021 l0 -91 27 -1 c15 0 34 -2 43 -4 8 -1 42 -6 75 -10 381
-44 820 -219 1159 -463 231 -166 463 -402 638 -650 20 -28 37 -54 37 -57 0 -2
13 -23 29 -47 118 -175 251 -492 310 -742 28 -116 33 -142 47 -230 3 -21 8
-48 10 -60 10 -51 19 -222 18 -351 -1 -205 -12 -317 -50 -504 -103 -506 -340
-946 -710 -1317 -208 -209 -436 -372 -707 -506 -151 -75 -401 -164 -538 -192
-13 -3 -55 -12 -94 -20 -38 -8 -92 -18 -120 -21 -27 -4 -61 -8 -74 -10 -53 -9
-222 -18 -321 -18 -158 0 -290 12 -440 39 -47 8 -98 18 -115 21 -139 24 -410
121 -592 210 -173 84 -428 254 -539 357 -7 6 -39 38 -73 70 l-62 59 -119 1
c-66 1 -120 -1 -120 -4 0 -8 225 -230 275 -272 48 -40 61 -50 77 -63 371 -292
809 -486 1258 -559 19 -4 45 -8 57 -10 23 -5 87 -12 188 -22 125 -12 400 -6
533 11 112 14 197 27 202 30 3 2 21 6 40 9 57 9 228 55 325 87 321 109 656
301 915 524 82 70 301 297 363 375 274 344 459 727 551 1143 24 109 27 128 41
232 4 28 9 61 12 75 13 60 11 509 -3 615 -58 463 -205 861 -455 1237 -32 48
-65 95 -73 105 -8 10 -45 56 -82 103 -153 193 -411 424 -629 564 -140 90 -132
85 -245 144 -302 158 -664 265 -1002 298 l-67 6 0 -91z"/>
<path d="M4020 4507 c-3 -2 -45 -7 -95 -11 -49 -3 -101 -8 -115 -11 -13 -2
-42 -7 -65 -11 -49 -7 -172 -49 -194 -66 -29 -23 -31 -32 -31 -160 l0 -126 53
14 c28 8 72 17 97 20 25 3 54 8 65 10 63 12 230 19 455 19 312 0 446 -10 617
-44 75 -15 83 -16 84 -2 0 9 1 64 1 124 1 97 -1 110 -20 130 -20 21 -84 50
-142 63 -60 14 -114 24 -158 30 -25 3 -58 8 -72 11 -35 5 -475 15 -480 10z"/>
<path d="M3978 4085 c-2 -1 -39 -6 -83 -9 -154 -12 -339 -46 -359 -66 -8 -8
-11 -258 -3 -266 1 -2 27 3 57 11 62 16 173 31 305 42 178 15 650 7 795 -13
63 -9 144 -23 178 -30 l33 -7 -3 134 -3 134 -61 16 c-33 9 -83 19 -110 23
-101 13 -125 16 -161 22 -39 6 -579 15 -585 9z"/>
<path d="M2489 3747 c-15 -12 -71 -53 -124 -92 -54 -38 -134 -97 -179 -130
-73 -55 -593 -435 -1311 -959 -148 -109 -277 -204 -285 -212 -12 -12 8 -14
149 -14 l164 0 156 102 c86 56 208 136 271 177 63 42 123 80 132 86 10 5 113
73 230 150 430 281 615 403 698 457 47 30 159 104 250 163 91 59 219 143 285
186 66 42 129 84 140 93 18 14 -7 15 -265 15 -280 0 -285 0 -311 -22z"/>
<path d="M5199 3753 c0 -10 -1 -445 -2 -968 l-2 -950 -1055 0 -1055 0 -2 100
c-1 55 -2 106 -2 113 -1 10 -20 11 -83 7 -46 -3 -119 -7 -163 -10 -44 -3 -114
-7 -155 -10 -41 -3 -113 -7 -160 -10 -90 -6 -184 -12 -290 -20 -36 -3 -110 -7
-165 -10 -55 -3 -122 -8 -150 -10 -27 -2 -97 -7 -155 -10 -58 -4 -127 -8 -155
-10 -27 -2 -95 -6 -150 -10 -55 -3 -127 -8 -160 -10 -186 -12 -273 -18 -300
-20 -16 -2 -42 -3 -57 -4 -25 -1 -28 -5 -28 -35 0 -31 3 -34 43 -42 27 -6
-130 -9 -453 -9 l-495 0 -3 -98 -3 -97 228 0 c232 0 5210 0 5536 0 l178 0 -3
97 -3 98 -152 -1 c-84 0 -153 3 -153 7 0 4 36 153 79 331 90 368 89 363 76
362 -5 -1 -41 -5 -80 -8 -38 -4 -81 -9 -95 -11 -14 -2 -52 -7 -85 -10 -33 -3
-76 -8 -97 -11 l-36 -5 0 588 c-1 323 -1 612 -1 641 l-1 52 -95 0 c-83 0 -95
-2 -96 -17z"/>
<path d="M3949 3706 c-2 -2 -38 -7 -79 -10 -91 -8 -274 -33 -315 -44 l-30 -8
-3 -136 -3 -135 33 3 c18 2 42 6 54 9 11 2 45 7 75 10 30 3 63 8 74 10 96 19
619 27 800 11 78 -6 230 -26 318 -41 l27 -5 0 134 0 135 -37 10 c-51 13 -146
29 -210 36 -29 3 -77 8 -105 11 -59 6 -593 15 -599 10z"/>
<path d="M3035 3482 c-16 -10 -214 -125 -440 -254 -225 -130 -513 -295 -640
-368 -378 -218 -555 -320 -641 -370 -45 -26 -88 -50 -95 -53 -8 -3 -81 -46
-164 -94 -142 -84 -149 -90 -151 -121 -1 -18 1 -34 5 -36 5 -4 72 21 156 59
35 15 614 261 1095 465 184 78 349 147 365 155 17 7 147 63 290 124 l260 111
0 200 c0 110 -2 200 -5 200 -3 0 -18 -8 -35 -18z"/>
<path d="M3918 3315 c-2 -1 -41 -5 -88 -9 -47 -3 -96 -8 -110 -10 -14 -2 -47
-7 -75 -11 -27 -3 -67 -11 -87 -16 l-38 -10 0 -135 0 -135 58 6 c31 4 68 9 82
11 125 19 783 27 965 11 90 -8 210 -23 253 -33 l22 -4 0 143 c0 137 -1 143
-21 144 -11 1 -44 6 -72 12 -29 6 -77 13 -107 17 -30 3 -73 8 -95 11 -41 5
-682 12 -687 8z"/>
<path d="M2980 2949 c-235 -93 -844 -334 -925 -366 -49 -19 -103 -41 -120 -48
-16 -7 -102 -41 -190 -75 -88 -34 -169 -65 -180 -71 -11 -5 -135 -54 -275
-109 -140 -56 -282 -112 -315 -125 -43 -17 -61 -29 -63 -44 -4 -25 5 -26 83
-5 33 8 67 17 75 19 16 3 241 62 700 181 157 41 373 97 480 124 107 28 319 82
470 121 151 39 295 77 319 83 l44 13 1 162 c1 90 -1 166 -4 170 -3 4 -48 -9
-100 -30z"/>
<path d="M4087 2934 c-1 -1 -76 -4 -167 -8 -160 -5 -205 -9 -320 -22 -30 -3
-61 -6 -67 -7 -10 0 -13 -36 -13 -143 0 -142 0 -143 23 -139 200 32 972 38
1232 10 28 -3 65 -7 83 -9 19 -2 32 1 33 8 0 6 3 68 5 139 4 116 3 127 -13
128 -10 0 -27 2 -38 5 -18 3 -49 7 -145 19 -100 13 -195 17 -393 19 -120 1
-219 1 -220 0z"/>
<path d="M3878 2535 c-1 -2 -46 -6 -98 -9 -128 -7 -244 -17 -248 -21 -2 -2 -5
-78 -5 -168 l-2 -165 50 3 c158 11 359 16 665 15 326 0 435 -3 593 -15 l67 -5
0 168 c0 128 -3 169 -12 169 -23 1 -172 14 -208 19 -41 6 -797 14 -802 9z"/>
<path d="M3069 2526 c-3 -3 -19 -7 -37 -11 -17 -3 -62 -12 -99 -21 -38 -9 -75
-17 -83 -19 -16 -3 -493 -113 -520 -120 -8 -2 -76 -17 -150 -34 -115 -26 -318
-73 -370 -86 -8 -2 -44 -10 -80 -18 -36 -8 -128 -29 -205 -47 -77 -17 -147
-33 -155 -35 -8 -2 -55 -13 -105 -24 -49 -12 -139 -32 -200 -46 -60 -14 -120
-27 -132 -30 -16 -4 -23 -13 -23 -30 0 -22 4 -25 28 -21 15 2 63 7 107 11 44
3 96 8 115 10 19 2 62 6 95 9 33 3 83 8 110 11 28 2 82 7 120 10 39 4 81 8 95
10 14 2 61 7 105 10 44 4 96 9 115 10 19 2 69 7 110 10 41 3 91 8 110 10 19 3
64 7 100 10 36 3 81 8 100 10 19 2 69 7 110 10 71 5 128 11 210 20 19 2 69 7
110 10 41 4 93 9 115 11 62 6 133 12 220 19 44 4 84 11 89 16 5 4 9 78 10 164
1 144 -3 183 -15 171z"/>
</g>
</svg>
